<?xml version="1.0" encoding="UTF-8" standalone="no"?>
<!-- Created with Inkscape (http://www.inkscape.org/) -->

<svg
   xmlns:dc="http://purl.org/dc/elements/1.1/"
   xmlns:cc="http://creativecommons.org/ns#"
   xmlns:rdf="http://www.w3.org/1999/02/22-rdf-syntax-ns#"
   xmlns:svg="http://www.w3.org/2000/svg"
   xmlns="http://www.w3.org/2000/svg"
   xmlns:sodipodi="http://sodipodi.sourceforge.net/DTD/sodipodi-0.dtd"
   xmlns:inkscape="http://www.inkscape.org/namespaces/inkscape"
   width="210mm"
   height="210mm"
   viewBox="0 0 744.09449 744.09448"
   id="svg4445"
   version="1.1"
   inkscape:version="0.91 r"
   sodipodi:docname="hand-vector.svg">
  <defs
     id="defs4447" />
  <sodipodi:namedview
     id="base"
     pagecolor="#ffffff"
     bordercolor="#666666"
     borderopacity="1.0"
     inkscape:pageopacity="0.0"
     inkscape:pageshadow="2"
     inkscape:zoom="0.40742188"
     inkscape:cx="494.04123"
     inkscape:cy="520"
     inkscape:document-units="px"
     inkscape:current-layer="layer1"
     showgrid="false"
     showguides="true"
     inkscape:guide-bbox="true"
     inkscape:window-width="1301"
     inkscape:window-height="744"
     inkscape:window-x="65"
     inkscape:window-y="24"
     inkscape:window-maximized="1">
    <sodipodi:guide
       position="584.16108,179.17545"
       orientation="0,1"
       id="guide5005" />
  </sodipodi:namedview>
  <metadata
     id="metadata4450">
    <rdf:RDF>
      <cc:Work
         rdf:about="">
        <dc:format>image/svg+xml</dc:format>
        <dc:type
           rdf:resource="http://purl.org/dc/dcmitype/StillImage" />
        <dc:title></dc:title>
      </cc:Work>
    </rdf:RDF>
  </metadata>
  <g
     inkscape:label="Layer 1"
     inkscape:groupmode="layer"
     id="layer1"
     transform="translate(0,-308.26772)">
    <g
       id="g4124"
       transform="matrix(-37.81036,-0.36610908,-0.43616533,36.58263,-5981.0548,-4907.022)"
       style="display:inline">
      <path
         sodipodi:nodetypes="cscccsccsccsccsccscccccccccccsssscccccccsscc"
         transform="translate(0,35.433079)"
         inkscape:connector-curvature="0"
         id="path4126"
         d="m -158.28075,124.44062 c 0,0 -3.10164,0.0928 -3.83821,0.0191 -0.73657,-0.0737 -0.62609,-0.33146 -0.95754,-0.29463 -0.33146,0.0368 -0.0737,0.18414 -0.44194,0.11049 -0.36829,-0.0737 -0.84706,-0.14732 -1.25217,-0.0737 -0.40512,0.0737 -0.0368,0.44194 -1.10486,0.22097 -1.06802,-0.22097 -2.24653,-0.47877 -2.90945,-0.88388 -0.66291,-0.40512 -0.33145,0.40511 -0.62608,0.33145 -0.29463,-0.0737 -2.87262,-0.55242 -3.46188,-1.25217 -0.58925,-0.69974 -1.32582,-1.39948 -2.06239,-1.36265 -0.73657,0.0368 -0.2578,0.33146 -0.40512,0.58926 -0.14731,0.2578 0.0368,1.14168 0.0368,1.28899 0,0.14732 0.0737,0.55243 -0.0736,0.69974 -0.14732,0.14732 -0.0368,0.22097 -0.5156,0.55243 -0.47877,0.33146 -0.81023,0.5156 -0.99437,0.22097 -0.18414,-0.29463 -0.14732,-0.69974 -0.22097,-0.95754 -0.0737,-0.2578 -0.14732,-0.36828 -0.18414,-0.69974 -0.0368,-0.33146 0.14731,-1.36265 0.14731,-1.5468 0,-0.18414 0.29463,-1.25216 0.33146,-1.76776 0.0368,-0.5156 0.33145,-0.99437 -0.14732,-1.06803 -0.47877,-0.0737 -0.44194,0.29463 -0.47877,0.58926 -0.0368,0.29463 0,0.58925 -0.33145,0.88388 -0.33146,0.29463 -0.73657,0.95754 -1.06803,0.58926 -0.33146,-0.36829 -0.47877,-0.33146 -0.40511,-0.92072 0.0737,-0.58925 -0.14732,-0.47877 -0.11049,-0.73657 0.0368,-0.25779 1.58363,-3.57236 1.73094,-3.90381 0.14731,-0.33146 0.0368,-0.62609 0.47877,-0.7734 0.44194,-0.14732 2.20971,-0.95754 2.35702,-1.0312 0.14732,-0.0737 1.06803,-0.2578 1.14168,-0.40511 0.0737,-0.14732 0,-0.55243 -0.18414,-0.81023 -0.18414,-0.2578 -1.32582,-1.98874 -2.02556,-2.46751 -0.69974,-0.47877 -1.289,-0.95754 -1.69411,-1.76776 -0.40512,-0.81023 -0.81023,-1.58363 -0.58926,-1.8046 0.22097,-0.22097 0.22097,-0.33146 0.5156,-0.29463 0.29463,0.0368 0.55243,0.22097 0.55243,0.22097 l 6.33449,5.48745 c 0,0 1.10486,1.17851 1.25217,1.39948 0.14732,0.22097 0.69974,0.47877 0.84706,0.62608 0.14731,0.14732 2.13605,2.61483 2.35702,2.87262 0.22097,0.2578 0.22097,0.2578 0.22097,0.2578 0,0 0.69972,0.92077 1.03118,1.10491 0.33146,0.18414 0.95754,0.44194 1.65728,0.69974 0.69974,0.2578 1.55067,0.46071 3.71839,0.85628 1.8826,0.15592 1.81393,5.27497 1.37199,5.20131 z"
         style="color:#000000;display:inline;overflow:visible;visibility:visible;fill:#f7f7f7;fill-opacity:1;fill-rule:evenodd;stroke:none;stroke-width:1;marker:none;enable-background:accumulate" />
      <path
         id="path4128"
         style="color:#000000;display:inline;overflow:visible;visibility:visible;fill:#333333;fill-opacity:1;fill-rule:nonzero;stroke:none;stroke-width:6.15644121;marker:none;enable-background:accumulate"
         d="m -176.42771,142.05678 c -0.28866,-0.16933 -0.46625,-0.40739 -0.30392,-0.40739 0.07,0 0.39949,0.2722 0.45869,0.37892 0.0814,0.14682 0.0553,0.15167 -0.15479,0.0284 z m 0.43637,0.34647 c -0.0968,-0.10677 -0.0427,-0.19176 0.0802,-0.12697 0.0798,0.0418 0.11629,0.0874 0.11715,0.14474 4.8e-4,0.0594 -0.13879,0.0466 -0.19737,-0.0173 z m -0.85664,0.34585 c 0.0115,-0.0672 0.11874,-0.0935 0.11874,-0.0294 0,0.0251 -0.0225,0.0544 -0.0495,0.0646 -0.0734,0.0283 -0.0811,0.025 -0.0695,-0.0353 z m 0.0289,0.43213 c -0.0635,-0.0414 -0.0208,-0.19072 0.0571,-0.19072 0.077,0 0.16327,0.0869 0.15097,0.15184 -0.0101,0.0571 -0.14226,0.082 -0.20818,0.0388 z m 3.18082,2.80635 c -0.0643,-0.0414 -0.0208,-0.1186 0.0641,-0.11239 0.0491,0.001 0.073,0.025 0.073,0.0648 0,0.0661 -0.0703,0.0908 -0.13707,0.0476 z m 0.90117,0.19945 c 0,-0.009 0.009,-0.0144 0.0144,-0.0144 0.009,0 0.0144,0.009 0.0144,0.0144 0,0.009 -0.009,0.0144 -0.0144,0.0144 -0.009,0 -0.0144,-0.009 -0.0144,-0.0144 z m 0.40545,0.35872 c 0,-0.0173 0.0144,-0.0312 0.0312,-0.0312 0.0173,0 0.0312,0.0144 0.0312,0.0312 0,0.0173 -0.0144,0.0312 -0.0312,0.0312 -0.0173,0 -0.0312,-0.0144 -0.0312,-0.0312 z m -0.39167,0.0594 c -0.0258,-0.0416 0.0726,-0.12956 0.12552,-0.11196 0.0173,0.003 0.0323,0.0375 0.0323,0.0707 0,0.0687 -0.1212,0.10056 -0.1579,0.0413 z m 0.85949,0.29923 c 0,-0.009 0.009,-0.0144 0.0144,-0.0144 0.009,0 0.0144,0.009 0.0144,0.0144 0,0.009 -0.009,0.0144 -0.0144,0.0144 -0.009,0 -0.0144,-0.009 -0.0144,-0.0144 z m -0.35733,0.0173 c -0.0101,-0.0144 -0.001,-0.0378 0.0144,-0.0486 0.0372,-0.0225 0.0938,0.003 0.0938,0.0485 0,0.0378 -0.0846,0.0382 -0.10807,3.1e-4 z m 1.53206,0.32012 c -0.0115,-0.0115 -0.0208,-0.0502 -0.0208,-0.0864 0,-0.10764 -0.0834,-0.1953 -0.26534,-0.27853 -0.0944,-0.0433 -0.17123,-0.0912 -0.17123,-0.10677 0,-0.0144 -0.076,-0.089 -0.16916,-0.16309 -0.0932,-0.0744 -0.18366,-0.16707 -0.20153,-0.2061 -0.0173,-0.0391 -0.0908,-0.10821 -0.16205,-0.15305 -0.20776,-0.13101 -0.57634,-0.44043 -0.63765,-0.5351 -0.10143,-0.15617 -0.6985,-0.72863 -0.80827,-0.77445 -0.0589,-0.025 -0.13259,-0.0881 -0.16344,-0.14096 -0.0312,-0.0528 -0.10575,-0.11946 -0.16586,-0.14786 -0.06,-0.0284 -0.17494,-0.11845 -0.2553,-0.19966 -0.0955,-0.0968 -0.18201,-0.15444 -0.24947,-0.16587 -0.057,-0.0101 -0.12452,-0.044 -0.14994,-0.0762 -0.0258,-0.0322 -0.1072,-0.0894 -0.18075,-0.12739 -0.0737,-0.0378 -0.1579,-0.10475 -0.18698,-0.14838 -0.0863,-0.12971 -0.46321,-0.49744 -0.53182,-0.51924 -0.0349,-0.0101 -0.11109,-0.086 -0.16949,-0.16691 -0.0583,-0.0808 -0.21365,-0.26494 -0.34492,-0.40955 -0.13129,-0.14456 -0.23859,-0.27444 -0.23859,-0.28852 0,-0.054 0.15478,-0.0225 0.1872,0.0371 0.0173,0.0345 0.11355,0.10359 0.21167,0.15357 0.11312,0.0574 0.27516,0.18968 0.44325,0.36056 0.14578,0.14838 0.31091,0.28909 0.36692,0.31291 0.14561,0.0622 0.43591,0.32134 0.47041,0.4202 0.0251,0.0724 0.0427,0.0821 0.12739,0.0695 0.086,-0.0115 0.12437,0.0101 0.30742,0.18159 0.42275,0.39564 0.49209,0.45693 0.59909,0.52976 0.28521,0.19426 0.54308,0.43023 0.69225,0.63356 0.09,0.12293 0.17929,0.23311 0.19841,0.24533 0.0208,0.0115 0.0747,0.0799 0.12379,0.1508 0.0574,0.0831 0.15063,0.15981 0.26244,0.21641 0.21765,0.11008 0.44701,0.31071 0.53568,0.46843 0.0378,0.0674 0.10893,0.13822 0.1598,0.15911 0.11442,0.0475 0.38562,0.30291 0.41039,0.38669 0.0101,0.0345 0.0606,0.0863 0.11225,0.11543 0.10374,0.0589 0.12134,0.14854 0.0447,0.22536 -0.0502,0.0502 -0.14298,0.0651 -0.17972,0.0283 z m -0.61061,0.0537 c -0.0225,-0.0144 -0.0323,-0.0416 -0.0208,-0.0606 0.0258,-0.0416 0.10071,-0.0457 0.12466,-0.009 0.0263,0.0427 -0.057,0.097 -0.10417,0.0675 z m -1.96975,-0.0208 c -0.0652,-0.0788 0.003,-0.15548 0.13086,-0.1444 0.14976,0.0115 0.18346,0.0606 0.0938,0.1336 -0.0894,0.073 -0.17002,0.0769 -0.22487,0.0101 z m 1.38226,0.29114 c 0.009,-0.0225 0.0387,-0.0388 0.07,-0.0388 0.0313,0 0.0632,0.0173 0.0703,0.0388 0.009,0.025 -0.0173,0.0388 -0.0703,0.0388 -0.0527,0 -0.0782,-0.0144 -0.07,-0.0388 z m 0.49899,0.0811 c -0.0225,-0.0101 -0.0388,-0.0371 -0.0388,-0.0623 0,-0.0322 0.0263,-0.0433 0.0858,-0.0364 0.0508,0.003 0.0858,0.0289 0.0858,0.0563 0,0.0486 -0.0664,0.0698 -0.13259,0.0424 z m -0.94232,-0.0251 c -0.0553,-0.0668 -0.0115,-0.11052 0.10994,-0.11052 0.11139,0 0.1401,0.0485 0.0698,0.11845 -0.0509,0.0509 -0.13418,0.047 -0.17972,-0.009 z m 1.74539,0.0459 c -0.0387,-0.025 -0.0398,-0.0408 -0.009,-0.0926 0.0225,-0.0346 0.0388,-0.0894 0.0388,-0.12192 0,-0.0863 0.082,-0.1463 0.13706,-0.10056 0.0519,0.0433 0.0906,0.22312 0.0626,0.2948 -0.0225,0.0563 -0.15599,0.0682 -0.23112,0.0208 z m -0.36908,-0.001 c -0.13187,-0.0528 -0.0144,-0.1793 0.13057,-0.14226 0.0883,0.0225 0.10633,0.077 0.0453,0.13822 -0.0436,0.0436 -0.0759,0.0444 -0.17576,0.003 z m 0.78529,0.17209 c -0.0101,-0.0263 -0.0101,-0.0563 -3.9e-4,-0.0664 0.0313,-0.0313 0.11442,0.0173 0.11442,0.0665 0,0.0623 -0.09,0.0622 -0.11398,-3.9e-4 z m -1.19591,0.0794 c 0,-0.0726 0.0977,-0.0858 0.15184,-0.0208 0.0436,0.0527 0.0144,0.0831 -0.0789,0.0831 -0.0519,0 -0.0727,-0.0173 -0.0727,-0.0623 z m 0.43845,0.0488 c -0.0297,-0.0356 -0.0225,-0.0519 0.031,-0.0811 0.0547,-0.0291 0.0772,-0.0271 0.11499,0.0101 0.0258,0.0258 0.0374,0.0623 0.0258,0.0811 -0.03,0.0485 -0.12755,0.0424 -0.17158,-0.0101 z m -1.41815,0.001 c -0.0984,-0.0719 -0.0423,-0.15184 0.0986,-0.14038 0.10186,0.009 0.11715,0.0208 0.11715,0.0876 0,0.0599 -0.0173,0.0799 -0.0781,0.0871 -0.0427,0.003 -0.10475,-0.0101 -0.1375,-0.0345 z m 1.5099,0.29045 c 0,-0.0225 0.0101,-0.0322 0.0208,-0.0208 0.0115,0.0115 0.0115,0.0301 0,0.0416 -0.0115,0.0115 -0.0208,0.001 -0.0208,-0.0208 z m -1.52197,0.0561 c -0.0495,-0.0495 -0.047,-0.073 0.0115,-0.13187 0.0648,-0.0648 0.25021,-0.0646 0.27514,3.2e-4 0.0284,0.0737 0.0274,0.075 -0.0893,0.12364 -0.131,0.0548 -0.14959,0.0557 -0.19737,0.009 z m 0.46074,0.0115 c -0.10576,-0.0856 -0.0635,-0.16171 0.0894,-0.16171 0.14578,0 0.22812,0.072 0.15807,0.13851 -0.0799,0.0759 -0.17175,0.0846 -0.24756,0.0225 z m 1.44939,0.30358 c -0.0294,-0.0476 0.0345,-0.10302 0.0933,-0.0802 0.027,0.0101 0.0488,0.0401 0.0488,0.0665 0,0.0547 -0.11009,0.0652 -0.14212,0.0144 z m -0.92768,0.0144 c -0.0491,-0.0491 -0.0208,-0.10922 0.0485,-0.0996 0.0387,0.003 0.07,0.031 0.07,0.0563 0,0.0496 -0.0821,0.0794 -0.11845,0.0433 z m -0.97219,-0.0225 c -0.0824,-0.0603 -0.0404,-0.14475 0.0724,-0.14475 0.10243,0 0.17679,0.0694 0.14958,0.13996 -0.0225,0.0586 -0.14474,0.0613 -0.22188,0.003 z m 0.45639,0.046 c -0.0684,-0.0434 -0.0303,-0.16846 0.0582,-0.19198 0.0975,-0.026 0.2174,0.0144 0.2174,0.0746 0,0.0485 -0.12985,0.14543 -0.19362,0.14457 -0.0225,-3.1e-4 -0.0589,-0.0115 -0.082,-0.027 z m 0.89937,0.25902 c 0,-0.0291 0.0225,-0.0449 0.0521,-0.0388 0.0782,0.0144 0.089,0.0882 0.0115,0.0882 -0.0384,0 -0.0651,-0.0208 -0.0651,-0.049 z m -0.45668,0.0332 c -0.0424,-0.11052 0.12971,-0.18678 0.20792,-0.0923 0.0326,0.0395 0.0294,0.0557 -0.0208,0.0925 -0.0778,0.0589 -0.16586,0.0586 -0.18844,-3.8e-4 z m -0.43993,0.0263 c -0.0531,-0.0225 -0.0491,-0.11932 0.009,-0.16552 0.0609,-0.0508 0.21565,4.2e-4 0.23011,0.076 0.0173,0.089 -0.11456,0.1388 -0.23709,0.0897 z m -0.45781,0.001 c -0.062,-0.062 -0.0633,-0.15703 -0.001,-0.18034 0.0646,-0.025 0.22614,0.0371 0.24832,0.0949 0.0447,0.11601 -0.14786,0.18283 -0.24532,0.0851 z m -1.32771,0.21665 c 0,-0.0371 0.0208,-0.045 0.0703,-0.0313 0.0387,0.0101 0.09,0.0208 0.11442,0.0208 0.0776,7.2e-4 0.009,0.0414 -0.0908,0.0521 -0.0695,0.009 -0.0936,-0.001 -0.0936,-0.0398 z m 3.11876,0.0641 c 0,-0.0289 0.0225,-0.0449 0.0521,-0.0388 0.0782,0.0144 0.089,0.0882 0.0115,0.0882 -0.0384,0 -0.0651,-0.0208 -0.0651,-0.0491 z m -3.52189,0.0225 c -0.0416,-0.0115 -0.0811,-0.0374 -0.0876,-0.0573 -0.0115,-0.0387 0.14474,-0.1336 0.22213,-0.1336 0.0625,0 0.0958,0.11701 0.0491,0.17313 -0.0401,0.0486 -0.0652,0.0509 -0.18345,0.0173 z m 3.13461,0.0633 c -0.10979,-0.025 -0.13216,-0.0736 -0.0641,-0.14125 0.0988,-0.0988 0.3142,-0.0309 0.29075,0.0921 -0.0115,0.0657 -0.084,0.0811 -0.22663,0.0495 z m -0.47817,-0.003 c -0.0648,-0.0261 -0.10214,-0.15132 -0.0469,-0.15755 0.0115,-0.001 0.0596,-0.009 0.10388,-0.0144 0.0534,-0.0101 0.0996,0.009 0.1362,0.0482 0.10922,0.12062 -0.0101,0.19861 -0.19343,0.12552 z m -0.88884,-0.001 c -0.0641,-0.0374 -0.0734,-0.19238 -0.0144,-0.24158 0.0488,-0.0407 0.17037,0.0115 0.22189,0.098 0.0279,0.0459 0.0208,0.0677 -0.0395,0.11701 -0.0838,0.0687 -0.0933,0.0703 -0.16812,0.0267 z m 0.48341,0.0173 c -0.0811,-0.057 -0.0935,-0.18595 -0.0208,-0.21391 0.16811,-0.0646 0.29058,0.03 0.22065,0.16967 -0.0469,0.0944 -0.10893,0.10807 -0.19987,0.044 z m -0.49902,0.27684 c -0.0496,-0.0208 -0.0502,-0.11139 -0.001,-0.16033 0.0512,-0.0516 0.19655,-0.047 0.24159,0.009 0.0583,0.0703 -0.0115,0.17411 -0.11628,0.17106 -0.0466,-0.001 -0.10215,-0.0101 -0.12365,-0.0173 z m -1.2943,-3.5e-4 c -0.0808,-0.0225 -0.0674,-0.10388 0.0173,-0.10388 0.0395,0 0.0884,-0.0173 0.10922,-0.0374 0.0488,-0.0488 0.10994,0.009 0.0946,0.0886 -0.0101,0.0586 -0.11181,0.0824 -0.22087,0.0527 z m -0.45465,-0.0427 c -0.12134,-0.0737 -0.12667,-0.1456 -0.0144,-0.18844 0.11802,-0.0449 0.22687,0.009 0.22687,0.10994 0,0.11716 -0.0932,0.15132 -0.21289,0.0786 z m 3.61243,0.0695 c 0,-0.0173 0.0225,-0.0388 0.0495,-0.0495 0.0303,-0.0115 0.0447,-0.003 0.0372,0.0173 -0.0144,0.0466 -0.0864,0.0724 -0.0864,0.0313 z m -1.41124,-0.009 c -0.0796,-0.0465 -0.0668,-0.13793 0.025,-0.17949 0.11312,-0.0512 0.13577,-0.046 0.17534,0.0408 0.0606,0.13317 -0.0626,0.21864 -0.20027,0.13879 z m -2.67869,0.2229 c -0.0641,-0.0527 -0.0685,-0.0687 -0.034,-0.12494 0.0225,-0.0356 0.0313,-0.097 0.0225,-0.13678 -0.0144,-0.0612 -0.001,-0.0769 0.0912,-0.10504 0.06,-0.0173 0.11715,-0.0258 0.12668,-0.0173 0.0413,0.0413 0.0115,0.10461 -0.0625,0.13231 -0.0806,0.0309 -0.0788,0.0926 0.001,0.0926 0.0646,0 0.10922,0.10013 0.073,0.16448 -0.0397,0.0708 -0.1274,0.0682 -0.21841,-0.009 z m 0.44061,0.0284 c -0.0488,-0.0912 -0.0173,-0.11715 0.11615,-0.0955 0.0912,0.0144 0.12018,0.0349 0.12797,0.0886 0.0101,0.0609 -0.003,0.0698 -0.10013,0.0698 -0.0788,0 -0.11975,-0.0173 -0.1437,-0.0632 z m -2.36994,-5.92497 c 0,-0.0416 -0.0208,-0.0623 -0.0623,-0.0623 -0.0416,0 -0.0623,0.0208 -0.0623,0.0623 0,0.0416 0.0208,0.0623 0.0623,0.0623 0.0415,0 0.0623,-0.0208 0.0623,-0.0623 z m 0.95048,1.20755 c -0.0144,-0.0794 -0.003,-0.11513 0.0444,-0.15997 0.0635,-0.0573 0.0635,-0.0579 0.001,-0.13592 -0.0776,-0.0987 -0.0772,-0.13937 10e-4,-0.21066 0.076,-0.0687 0.0371,-0.12465 -0.0685,-0.0984 -0.0695,0.0173 -0.0724,0.0289 -0.0658,0.29244 0.009,0.3075 0.0263,0.4146 0.0734,0.4146 0.0208,0 0.025,-0.0407 0.0115,-0.10215 z m 1.77013,2.0808 c -0.009,-0.0416 0.009,-0.1108 0.0364,-0.15357 0.0478,-0.073 0.047,-0.0812 -0.0115,-0.14038 -0.0776,-0.0776 -0.0838,-0.0776 -0.12466,-0.001 -0.025,0.0459 -0.0208,0.10922 0.0225,0.24732 0.0519,0.17576 0.10979,0.21091 0.0786,0.0478 z m -3.47179,2.66157 c -0.0271,-0.0225 -0.0657,-0.0698 -0.085,-0.10676 -0.0491,-0.0921 0.001,-0.12957 0.19779,-0.14169 0.14734,-0.0101 0.15461,-0.0144 0.1456,-0.0921 -0.009,-0.0651 0.0208,-0.10575 0.12798,-0.19489 0.0756,-0.0622 0.14924,-0.11254 0.16309,-0.11254 0.0144,0 0.0485,-0.0208 0.0762,-0.0459 0.0297,-0.027 0.14734,-0.054 0.28312,-0.0657 0.26857,-0.0225 0.58346,-0.12061 0.65839,-0.20464 0.0284,-0.032 0.0651,-0.0581 0.0814,-0.0581 0.0173,0 0.16205,-0.0684 0.32359,-0.15184 0.29147,-0.15063 0.53985,-0.21815 1.03182,-0.28004 0.15617,-0.0208 0.19654,-0.0401 0.31903,-0.16189 0.077,-0.0765 0.14038,-0.15408 0.14096,-0.17209 3.8e-4,-0.0173 -0.0496,-0.0812 -0.11109,-0.14039 -0.0615,-0.059 -0.1336,-0.14958 -0.16033,-0.20089 -0.0267,-0.0512 -0.0824,-0.13577 -0.12379,-0.1872 -0.084,-0.10417 -0.24282,-0.33406 -0.37483,-0.5423 -0.0476,-0.0752 -0.13678,-0.20175 -0.19778,-0.2807 -0.0612,-0.0789 -0.14457,-0.20422 -0.18595,-0.27789 -0.0509,-0.091 -0.14168,-0.17806 -0.28216,-0.27061 -0.21291,-0.1401 -0.3596,-0.30499 -0.5709,-0.641 -0.0665,-0.10576 -0.16482,-0.23236 -0.21838,-0.28172 -0.35383,-0.32521 -0.82279,-0.7135 -0.97478,-0.80718 -0.0495,-0.0303 -0.11614,-0.0851 -0.14924,-0.12192 -0.0326,-0.0365 -0.0834,-0.0668 -0.11326,-0.0668 -0.0648,0 -0.10878,-0.0512 -0.1336,-0.15617 -0.0101,-0.0433 -0.11874,-0.23958 -0.24156,-0.43663 -0.12264,-0.19695 -0.23638,-0.3934 -0.25288,-0.43628 -0.0173,-0.0427 -0.0551,-0.1059 -0.086,-0.14038 -0.031,-0.0345 -0.0651,-0.10013 -0.076,-0.14665 -0.0101,-0.0465 -0.0876,-0.15478 -0.17053,-0.24133 -0.0872,-0.0908 -0.16431,-0.20673 -0.18325,-0.27454 -0.0488,-0.17681 -0.0309,-0.56703 0.0314,-0.68499 0.0291,-0.0548 0.0528,-0.14038 0.0528,-0.1899 0,-0.0508 0.0274,-0.11513 0.0623,-0.14682 0.0345,-0.0312 0.0623,-0.073 0.0623,-0.0935 0,-0.0739 0.11398,-0.14439 0.19966,-0.12263 0.045,0.0115 0.0802,0.0365 0.078,0.0561 -0.0101,0.0734 0.003,0.1134 0.0365,0.1134 0.0173,0 0.031,-0.0315 0.0277,-0.07 -0.0101,-0.12639 0,-0.14096 0.11499,-0.1624 0.085,-0.0144 0.1261,-0.009 0.16378,0.03 0.046,0.047 0.0408,0.059 -0.0694,0.15236 -0.10633,0.0902 -0.11398,0.10575 -0.0695,0.14254 0.0274,0.0225 0.0952,0.046 0.15063,0.0521 0.0553,0.003 0.12177,0.0115 0.14734,0.0144 0.0258,0.001 0.0959,0.001 0.15582,4.1e-4 0.10922,-0.003 0.10922,-0.003 0.025,-0.075 -0.0987,-0.0814 -0.16604,-0.23709 -0.12192,-0.28119 0.045,-0.0453 0.22115,0.026 0.36272,0.14682 0.10503,0.0897 0.11946,0.11542 0.0906,0.16327 -0.0208,0.0312 -0.0646,0.0613 -0.10142,0.0668 -0.0465,0.009 -0.0672,0.0322 -0.0672,0.0821 0,0.10114 -0.0561,0.13677 -0.23459,0.14785 -0.15409,0.0101 -0.15548,0.0101 -0.16483,0.12452 -0.003,0.0632 -0.03,0.13129 -0.0547,0.15201 -0.062,0.0512 -0.0563,0.11499 0.0115,0.15236 0.0322,0.0173 0.0668,0.0739 0.0772,0.12667 0.0173,0.0832 0.0289,0.0932 0.097,0.0759 0.0622,-0.0144 0.0848,-0.003 0.11181,0.0551 0.0173,0.0413 0.0646,0.0881 0.10215,0.10461 0.098,0.0427 0.10677,0.16828 0.0173,0.23684 -0.062,0.047 -0.0672,0.0641 -0.0345,0.11139 0.12018,0.17368 0.16413,0.29725 0.16413,0.46193 0,0.10836 0.0115,0.16725 0.0312,0.15548 0.0173,-0.0101 0.0312,-0.0579 0.0312,-0.10475 0,-0.10373 0.0511,-0.16032 0.14474,-0.16032 0.0786,0 0.1669,0.1059 0.16794,0.20195 3.6e-4,0.0346 0.026,0.0959 0.0564,0.13591 0.056,0.0726 0.056,0.0726 0.16916,0.003 0.11874,-0.0703 0.1849,-0.0594 0.27127,0.0447 0.0225,0.0267 0.077,0.0488 0.1222,0.049 0.10879,7.2e-4 0.34329,0.10922 0.36628,0.16915 0.0144,0.0401 0.0274,0.0413 0.0769,0.009 0.0906,-0.0633 0.24384,-0.0283 0.26626,0.0612 0.025,0.0975 4.9e-4,0.15357 -0.0912,0.21366 -0.0955,0.0625 -0.1617,0.0372 -0.21043,-0.0808 -0.0478,-0.11571 -0.0997,-0.0746 -0.0734,0.0581 0.0115,0.0674 0.0465,0.10821 0.1072,0.13332 0.13303,0.0551 0.19676,0.13995 0.17369,0.23086 -0.0144,0.0586 -0.003,0.0863 0.0424,0.11109 0.10215,0.0547 0.1375,0.14976 0.0851,0.22863 -0.0395,0.0594 -0.0388,0.0802 0.001,0.16915 0.0459,0.0962 0.0449,0.10503 -0.0225,0.17556 -0.0698,0.0745 -0.0698,0.0745 0.0101,0.19176 0.0439,0.0646 0.0798,0.1297 0.0798,0.14439 0,0.0144 0.0144,0.027 0.0312,0.027 0.0173,0 0.0312,-0.0361 0.0312,-0.0799 0,-0.044 0.0144,-0.10705 0.0322,-0.14009 0.0225,-0.0436 0.0208,-0.0838 -0.0115,-0.14717 -0.0561,-0.10835 -0.0144,-0.19425 0.0908,-0.19425 0.086,0 0.18782,0.12869 0.1598,0.20194 -0.0101,0.0258 0.003,0.0881 0.0352,0.1388 0.0444,0.077 0.0469,0.10878 0.0144,0.1903 -0.0384,0.10201 -0.009,0.24858 0.0512,0.24858 0.0173,0 0.0509,-0.0378 0.0752,-0.0843 0.0332,-0.0633 0.0361,-0.10244 0.0101,-0.15703 -0.026,-0.0564 -0.0225,-0.0833 0.0144,-0.12091 0.0436,-0.0436 0.059,-0.0387 0.15963,0.0496 0.0613,0.0538 0.1274,0.14613 0.14682,0.20547 0.0336,0.10215 0.0388,0.10503 0.10243,0.0609 0.0828,-0.0579 0.1791,-0.0599 0.25395,-0.003 0.0794,0.0579 0.0918,0.32477 0.0208,0.4106 -0.0289,0.0345 -0.0752,0.0987 -0.10273,0.14341 -0.0466,0.0752 -0.046,0.0871 0.0101,0.17158 0.0329,0.0499 0.06,0.11182 0.0603,0.13735 4.3e-4,0.0258 0.0346,0.0789 0.0762,0.11846 0.0643,0.0612 0.0848,0.0658 0.13736,0.0329 0.0485,-0.0302 0.0799,-0.0303 0.14312,-10e-4 0.10273,0.0469 0.13187,0.12119 0.0799,0.20402 -0.0297,0.0475 -0.031,0.0677 -0.003,0.0765 0.0606,0.0208 0.12841,0.10186 0.13057,0.15686 7.3e-4,0.0287 0.009,0.10835 0.0115,0.17702 0.003,0.0685 -0.0101,0.17209 -0.0329,0.22986 -0.0657,0.1598 -0.054,0.29968 0.0326,0.39987 0.0599,0.0694 0.0838,0.0796 0.11441,0.0495 0.0301,-0.0297 0.0309,-0.0561 0.001,-0.11831 -0.0297,-0.0652 -0.0271,-0.0945 0.0144,-0.15755 0.0469,-0.0716 0.0469,-0.0819 0,-0.1336 -0.0672,-0.0739 -0.0648,-0.182 0.003,-0.21913 0.0808,-0.0434 0.26934,0.001 0.28208,0.0694 0.003,0.0301 -0.0101,0.086 -0.0346,0.12379 -0.0413,0.0626 -0.0388,0.0737 0.026,0.12263 0.0674,0.0509 0.0747,0.0508 0.1401,-10e-4 0.0599,-0.0486 0.0638,-0.0643 0.0288,-0.11975 -0.0578,-0.0925 -0.0173,-0.16603 0.0897,-0.16603 0.12812,0 0.18241,0.0726 0.12913,0.17227 -0.0352,0.0657 -0.0336,0.0848 0.0101,0.13389 0.0652,0.072 0.0664,0.15616 0.001,0.22688 -0.045,0.0499 -0.0439,0.0599 0.0144,0.1196 0.0615,0.0615 0.0625,0.0716 0.0173,0.17846 -0.0345,0.0824 -0.0382,0.12437 -0.0115,0.15374 0.0586,0.0707 0.0208,0.18076 -0.0739,0.21391 -0.1799,0.0632 -0.27769,-0.11096 -0.12839,-0.22837 0.0516,-0.0407 0.0664,-0.0661 0.0382,-0.0661 -0.0682,0 -0.12812,-0.13505 -0.10576,-0.23809 0.0144,-0.071 0.003,-0.0984 -0.049,-0.13216 -0.0596,-0.0372 -0.0736,-0.0361 -0.10677,0.0101 -0.0284,0.0388 -0.0294,0.0746 -0.003,0.14226 0.0261,0.0694 0.025,0.10878 -0.009,0.16915 -0.0346,0.0651 -0.0349,0.0873 -7.2e-4,0.12798 0.0225,0.0271 0.0387,0.10705 0.0361,0.17721 -0.003,0.15808 0.0423,0.23186 0.10821,0.16587 0.0326,-0.0326 0.0652,-0.0371 0.12134,-0.0144 0.0423,0.0144 0.0964,0.0225 0.12047,0.0115 0.0811,-0.0312 0.0932,0.0563 0.0144,0.11455 -0.11427,0.0863 -0.18201,0.0926 -0.25106,0.025 -0.0573,-0.0573 -0.0672,-0.0583 -0.11715,-0.0115 -0.03,0.0271 -0.075,0.0495 -0.10057,0.0495 -0.0251,0 -0.0625,0.0173 -0.0831,0.0372 -0.0289,0.0289 -0.0574,0.0173 -0.12812,-0.0499 -0.0752,-0.072 -0.10763,-0.0834 -0.18844,-0.0656 -0.0962,0.0208 -0.0975,0.0208 -0.09,-0.0912 0.003,-0.0906 -0.0115,-0.13216 -0.0915,-0.21167 -0.0988,-0.0988 -0.0988,-0.0988 -0.22563,-0.0279 -0.0695,0.0391 -0.1982,0.0778 -0.28608,0.086 -0.0876,0.009 -0.21715,0.0349 -0.28765,0.0594 -0.0707,0.025 -0.1508,0.0449 -0.17867,0.045 -0.0279,2.9e-4 -0.11225,0.0345 -0.18721,0.076 -0.075,0.0416 -0.18738,0.085 -0.24968,0.0962 -0.11052,0.0208 -0.18304,0.10634 -0.18304,0.21765 0,0.0703 -0.12956,0.14052 -0.25863,0.14052 -0.0822,0 -0.1624,0.0294 -0.25573,0.0935 -0.16794,0.11543 -0.58805,0.28037 -0.66397,0.26048 -0.0408,-0.0101 -0.084,0.0284 -0.15928,0.14457 -0.0977,0.1508 -0.10994,0.15911 -0.23261,0.156 -0.0713,-0.001 -0.18574,0.003 -0.25426,0.0144 -0.0798,0.0115 -0.14255,0.003 -0.17432,-0.0225 z m 2.2275,0.0208 c -0.0261,-0.0684 0.0485,-0.13836 0.14734,-0.13836 0.17244,0 0.1534,0.10244 -0.0291,0.15478 -0.0789,0.0225 -0.10475,0.0208 -0.11846,-0.0173 z m 7.25627,0.0894 c -0.0713,-0.0252 -0.12466,-0.10677 -0.12466,-0.1899 0,-0.0499 -0.0225,-0.0808 -0.0652,-0.0921 -0.0395,-0.0101 -0.0884,-0.0708 -0.12364,-0.15305 -0.0531,-0.12365 -0.0682,-0.13591 -0.16829,-0.13591 -0.10374,0 -0.11095,-0.009 -0.12971,-0.12293 -0.025,-0.14854 -0.11225,-0.25144 -0.21615,-0.25144 -0.0423,0 -0.0769,-0.0173 -0.0769,-0.0388 0,-0.0606 -0.21941,-0.25264 -0.36608,-0.32071 -0.0727,-0.0336 -0.13231,-0.0707 -0.13259,-0.082 -4.1e-4,-0.0225 -0.25191,-0.17805 -0.37943,-0.23386 -0.0457,-0.0208 -0.0921,-0.0658 -0.1036,-0.10186 -0.0115,-0.0361 -0.0573,-0.0845 -0.10186,-0.10763 -0.0583,-0.0309 -0.0918,-0.0848 -0.11946,-0.193 -0.0583,-0.22938 -0.001,-0.30997 0.10186,-0.1463 0.03,0.047 0.13216,0.17556 0.22688,0.28532 0.1482,0.17158 0.21417,0.21915 0.46863,0.3377 0.2693,0.12567 0.32395,0.1669 0.60039,0.45428 0.16725,0.17411 0.31298,0.34422 0.32386,0.37847 0.0101,0.034 0.0531,0.0884 0.0944,0.12062 0.0408,0.0322 0.097,0.10301 0.12451,0.15703 0.0277,0.054 0.0975,0.13822 0.15548,0.18678 0.0756,0.0632 0.10503,0.11398 0.10503,0.1793 0,0.0925 -0.0101,0.0997 -0.0935,0.0695 z m -2.8812,0.12119 c -0.009,-0.0144 0.0371,-0.0945 0.10114,-0.17931 0.0964,-0.1271 0.13418,-0.15408 0.2149,-0.15408 0.0538,0 0.11542,-0.0173 0.13706,-0.0388 0.0561,-0.056 0.17245,-0.0482 0.19593,0.0115 0.025,0.0644 -0.0313,0.10272 -0.15045,0.10359 -0.0613,3.1e-4 -0.14298,0.0453 -0.25448,0.14096 -0.16326,0.13937 -0.21441,0.16344 -0.24432,0.11513 z m -3.86659,0.0349 c -0.0352,-0.0352 -0.0225,-0.0718 0.027,-0.0718 0.0258,0 0.0469,0.0115 0.0469,0.0294 0,0.0395 -0.0486,0.0675 -0.0736,0.0426 z m -1.33567,3.2e-4 c 0.0225,-0.0101 0.0495,-0.009 0.0599,0.001 0.0101,0.0101 -0.009,0.0173 -0.0408,0.0173 -0.0363,-10e-4 -0.0436,-0.0101 -0.0208,-0.0208 z m 0.34891,0.0407 c 0,-0.0594 0.0599,-0.102 0.17931,-0.1274 0.086,-0.0173 0.10114,-0.0115 0.10114,0.0371 0,0.0871 -0.0622,0.13332 -0.17786,0.13332 -0.0665,0 -0.10301,-0.0144 -0.10301,-0.0427 z m 0.4584,0.0173 c -0.0762,-0.0843 -0.0658,-0.1209 0.045,-0.15963 0.1222,-0.0426 0.18968,0.001 0.17617,0.11874 -0.0115,0.10302 -0.14341,0.12711 -0.22162,0.0407 z m -0.44572,0.30034 c -0.0225,-0.0382 0.0664,-0.11975 0.13187,-0.11975 0.0606,0 0.0833,0.0603 0.0416,0.11052 -0.045,0.0544 -0.14226,0.0596 -0.17328,0.0101 z m 0.49411,0.0958 c -0.0881,-0.0332 -0.0918,-0.13937 -0.009,-0.18491 0.0926,-0.0496 0.18595,-0.0101 0.18595,0.0796 0,0.0918 -0.0843,0.14125 -0.17931,0.10562 z m -0.78809,0.23584 c -0.0225,-0.0261 -0.031,-0.056 -0.0208,-0.0664 0.032,-0.032 0.11499,0.0144 0.11499,0.0661 0,0.0612 -0.0436,0.0612 -0.0944,3e-4 z m 0.29861,0.0502 c -0.0336,-0.0544 0.0208,-0.12754 0.0952,-0.12754 0.0522,0 0.0746,0.0173 0.0746,0.059 0,0.0793 -0.13057,0.13216 -0.16967,0.0685 z m -0.80715,0.009 c -0.0329,-0.0329 0.0433,-0.10417 0.11095,-0.10417 0.0436,0 0.0563,0.0144 0.0427,0.0495 -0.0101,0.0271 -0.0208,0.0551 -0.0208,0.0623 0,0.0208 -0.11239,0.0144 -0.1349,-0.009 z m 9.28741,0.0225 c -0.0822,-0.0335 -0.12567,-0.09 -0.15132,-0.19737 -0.0115,-0.0502 -0.0544,-0.10215 -0.10013,-0.12322 -0.0824,-0.0375 -0.35536,-0.4279 -0.35536,-0.50839 0,-0.14959 0.23758,0.044 0.65133,0.53117 0.22264,0.2621 0.20235,0.39782 -0.044,0.29778 z m -1.17886,0.10244 c -0.0303,-0.0303 -0.0253,-0.13505 0.009,-0.13505 0.0144,0 0.0444,0.0208 0.0651,0.0453 0.0553,0.0668 -0.0101,0.14994 -0.0716,0.0897 z m -8.6286,0.16932 c 0,-0.0648 0.0665,-0.11744 0.14872,-0.11744 0.0589,0 0.0719,0.0144 0.0638,0.0703 -0.009,0.0538 -0.0336,0.0726 -0.1111,0.0799 -0.0695,0.009 -0.10142,-0.001 -0.10142,-0.0326 z m 0.87952,0.0323 c -0.057,-0.057 -0.0457,-0.0858 0.047,-0.1209 0.11312,-0.0427 0.22736,-0.0115 0.22736,0.0622 0,0.0935 -0.19737,0.13591 -0.27446,0.0589 z m -0.34628,-0.001 c -0.0469,-0.0469 -0.0433,-0.14664 0.003,-0.14664 0.0225,0 0.0724,0.0225 0.11181,0.0502 0.0512,0.0361 0.0623,0.06 0.0384,0.0838 -0.047,0.047 -0.11571,0.0527 -0.15582,0.0115 z m 5.34131,0.0563 c -0.0271,-0.071 0.0101,-0.14038 0.0776,-0.14038 0.0326,0 0.0771,0.0208 0.0984,0.0469 0.0488,0.0589 -0.009,0.14038 -0.0984,0.14038 -0.0326,0 -0.0675,-0.0208 -0.0776,-0.0469 z m -2.7326,0.0284 c -0.0115,-0.0115 -0.0225,-0.0557 -0.0225,-0.0952 0,-0.12177 0.22488,-0.14298 0.26993,-0.0251 0.0101,0.0271 0.003,0.0623 -0.0101,0.0781 -0.0401,0.0401 -0.20942,0.0703 -0.23734,0.0424 z m 3.1635,-0.0341 c 0.0101,-0.0776 0.0225,-0.0876 0.11932,-0.0876 0.0958,0 0.10922,0.0101 0.10922,0.0781 0,0.0677 -0.0144,0.0794 -0.11932,0.0876 -0.11427,0.0101 -0.11874,0.003 -0.10922,-0.078 z m -6.20407,0.25024 c -0.0469,-0.0208 -0.0512,-0.0926 -0.009,-0.11975 0.0551,-0.0341 0.15565,0.0173 0.15565,0.0802 0,0.0589 -0.0603,0.075 -0.1482,0.0397 z m 5.40952,0.0633 c -0.0491,-0.0491 -0.0208,-0.10922 0.0485,-0.0995 0.0387,0.003 0.0703,0.031 0.0703,0.0563 0,0.0496 -0.0821,0.0796 -0.11846,0.0433 z m 0.36864,0.0626 c -0.0278,-0.0278 -0.046,-0.0734 -0.0408,-0.10143 0.0144,-0.0713 0.23933,-0.0703 0.28442,7.2e-4 0.075,0.11874 -0.13736,0.20652 -0.24359,0.10013 z m 1.08801,0.0698 c -0.0251,-0.0657 0.003,-0.10359 0.1375,-0.17681 0.0632,-0.0346 0.1624,-0.0977 0.22089,-0.13996 0.12696,-0.0918 0.36623,-0.11138 0.33397,-0.0274 -0.0101,0.0271 -0.0208,0.0538 -0.0208,0.0596 0,0.003 -0.0703,0.0283 -0.15616,0.0502 -0.0925,0.025 -0.20195,0.082 -0.26758,0.14197 -0.1362,0.12481 -0.22439,0.15756 -0.24945,0.0925 z m -1.56023,0.21611 c -0.0252,-0.0664 0.0115,-0.1108 0.0952,-0.1108 0.0814,0 0.15807,0.0739 0.12754,0.1235 -0.0303,0.049 -0.20298,0.0395 -0.22288,-0.0115 z m 0.39744,0.0345 c -0.0453,-0.0548 -0.0144,-0.13677 0.0661,-0.18033 0.0502,-0.027 0.0752,-0.0208 0.12798,0.032 0.0573,0.0573 0.0599,0.0708 0.0208,0.10893 -0.0727,0.0694 -0.17328,0.0876 -0.2134,0.0395 z m 4.84689,-0.0208 c -0.15859,-0.0935 -0.19655,-0.1456 -0.20341,-0.282 -0.001,-0.0509 -0.0501,-0.116 -0.13677,-0.18719 -0.182,-0.14959 -0.28863,-0.40547 -0.16933,-0.40547 0.0364,0 0.39925,0.36385 0.39925,0.40036 0,0.0115 0.0778,0.10576 0.17313,0.20794 0.12755,0.13706 0.17054,0.20568 0.16379,0.26196 -0.0115,0.10735 -0.0501,0.10821 -0.22639,0.003 z m 0.38879,0.47206 c -0.0427,-0.047 -0.11976,-0.11543 -0.17106,-0.15184 -0.0933,-0.0664 -0.0933,-0.0664 -0.0315,-0.13433 0.10071,-0.11138 0.16067,-0.131 0.21939,-0.0724 0.0362,0.0362 0.047,0.0832 0.0356,0.1534 -0.0115,0.0746 -5.1e-4,0.11514 0.0436,0.15548 0.0677,0.0613 0.0798,0.13879 0.0208,0.13692 -0.0225,-5.1e-4 -0.0739,-0.0397 -0.11701,-0.0869 z m -3.32208,0.0871 c -0.0115,-0.0208 -0.0512,-0.0279 -0.0871,-0.0173 -0.0658,0.0173 -0.1463,-0.0263 -0.1463,-0.0794 0,-0.0144 0.0947,-0.025 0.21043,-0.0208 0.18679,0.009 0.21043,0.0173 0.21043,0.0716 0,0.0444 -0.025,0.0651 -0.0828,0.072 -0.0457,0.003 -0.0926,-0.009 -0.10489,-0.0261 z m 3.59766,0.21514 c -0.1209,-0.044 -0.13605,-0.11845 -0.0434,-0.2109 0.0786,-0.0786 0.0786,-0.0786 0.165,-0.0144 0.0834,0.0622 0.13836,0.2296 0.0752,0.2296 -0.0173,0 -0.0495,0.003 -0.0724,0.0115 -0.0225,0.009 -0.0789,-4.7e-4 -0.12466,-0.0173 z m 0.30658,0.17037 c -0.0531,-0.0531 -0.0173,-0.10763 0.0648,-0.0984 0.11239,0.0115 0.1401,0.11874 0.0312,0.11874 -0.0414,0 -0.0845,-0.0101 -0.0959,-0.0208 z m 0.34558,0.17971 c -0.0944,-0.0998 -0.1098,-0.15876 -0.0413,-0.15876 0.0521,0 0.17368,0.14474 0.17368,0.20694 0,0.0652 -0.0388,0.0512 -0.13259,-0.0482 z m -4.23363,0.0907 c 0,-0.0225 0.0101,-0.0322 0.0208,-0.0208 0.0115,0.0115 0.0115,0.0302 0,0.0416 -0.0115,0.0115 -0.0208,0.001 -0.0208,-0.0208 z m -1.30988,0.0115 c 0,-0.0551 0.0672,-0.0453 0.0864,0.0115 0.009,0.0208 -0.0101,0.0372 -0.0372,0.0372 -0.0271,0 -0.0495,-0.0225 -0.0495,-0.0495 z m -6.38873,0.0225 c -0.0776,-0.049 -0.0277,-0.14312 0.0814,-0.15357 0.1235,-0.0115 0.17106,0.0672 0.0812,0.13505 -0.0677,0.0512 -0.1046,0.0557 -0.16292,0.0173 z m 4.09629,0.0274 c -0.0101,-0.0173 10e-4,-0.0401 0.0309,-0.0508 0.0599,-0.0225 0.0932,0.001 0.0643,0.0488 -0.026,0.0418 -0.0698,0.0427 -0.0949,0.001 z m 3.0741,0.0495 c -0.0434,-0.0521 -0.0375,-0.0564 0.11701,-0.0908 0.0635,-0.0144 0.13317,0.0496 0.0955,0.0873 -0.0439,0.044 -0.177,0.046 -0.21239,0.001 z m -0.42102,0.0404 c -0.0439,-0.0346 -0.0799,-0.0745 -0.0799,-0.0884 0,-0.044 0.1482,-0.0648 0.23311,-0.0326 0.0675,0.0258 0.076,0.0408 0.0499,0.09 -0.0485,0.0902 -0.11456,0.10056 -0.20299,0.0312 z m 5.61886,0.15998 c -0.0436,-0.0345 -0.0995,-0.0623 -0.12379,-0.0623 -0.0365,0 -0.11715,-0.11874 -0.11715,-0.17314 0,-0.0372 0.30591,-0.009 0.36733,0.0345 0.0752,0.0528 0.0915,0.16621 0.032,0.2259 -0.0501,0.0501 -0.0658,0.0478 -0.15824,-0.025 z m -13.64389,0.0407 c -0.0516,-0.0444 -0.0594,-0.0713 -0.0365,-0.1287 0.0335,-0.0848 0.14341,-0.0838 0.19695,10e-4 0.0267,0.0426 0.0208,0.0677 -0.0303,0.11845 -0.0623,0.0622 -0.0665,0.0625 -0.1297,0.009 z m 1.22933,0.0633 c -0.0372,-0.0372 -0.0225,-0.1579 0.025,-0.19612 0.0615,-0.0511 0.15443,-0.0287 0.16742,0.0404 0.0208,0.0987 -0.12913,0.2189 -0.19198,0.15582 z m 9.57412,0.0685 c -0.0208,-0.0521 0.0263,-0.0923 0.0734,-0.0633 0.0466,0.0289 0.0375,0.10922 -0.0115,0.10922 -0.025,0 -0.0512,-0.0208 -0.0612,-0.0459 z m -5.90393,-10e-4 c -0.0208,-0.0528 0.07,-0.17037 0.13086,-0.17037 0.0652,0 0.0812,0.0988 0.0258,0.16033 -0.0635,0.0703 -0.13187,0.0747 -0.15669,0.0101 z m 9.14276,0.0789 c -0.0101,-0.0173 -0.003,-0.0312 0.0144,-0.0312 0.0173,0 0.0329,0.0144 0.0329,0.0312 0,0.0173 -0.003,0.0312 -0.0144,0.0312 -0.009,0 -0.0225,-0.0144 -0.0329,-0.0312 z m -14.65836,0.0734 c -0.0476,-0.0476 -0.0469,-0.056 0.0101,-0.11341 0.0713,-0.0713 0.16084,-0.0528 0.16084,0.0329 0,0.0573 -0.0551,0.13187 -0.0975,0.13187 -0.0115,0 -0.0459,-0.0225 -0.0739,-0.0512 z m 5.86891,0.1323 c -0.0101,-0.025 0,-0.0665 0.0208,-0.0947 0.0313,-0.0427 0.046,-0.0444 0.0934,-0.0101 0.0353,0.026 0.0485,0.0606 0.0353,0.0947 -0.025,0.0646 -0.12494,0.0713 -0.14872,0.0101 z m -1.35593,0.009 c -0.089,-0.089 0.0144,-0.19342 0.17472,-0.17494 0.12047,0.0144 0.13533,0.13822 0.0225,0.18117 -0.1072,0.0408 -0.15098,0.0395 -0.19676,-0.003 z m 7.35407,0.0374 c 0,-0.0173 0.0144,-0.0312 0.0312,-0.0312 0.0173,0 0.0312,0.0144 0.0312,0.0312 0,0.0173 -0.0144,0.0312 -0.0312,0.0312 -0.0173,0 -0.0312,-0.0144 -0.0312,-0.0312 z m -6.43506,0.0101 c -0.0459,-0.0459 -0.0173,-0.13677 0.0612,-0.1874 0.0794,-0.0521 0.0838,-0.0512 0.13995,0.0173 0.0769,0.0947 0.0302,0.19052 -0.0932,0.19052 -0.0482,0 -0.0968,-0.0101 -0.10806,-0.0208 z m 10.71521,0.19101 c -0.073,-0.0225 -0.17348,-0.0708 -0.22314,-0.10619 -0.0496,-0.0353 -0.1186,-0.0643 -0.1534,-0.0643 -0.0583,0 -0.1695,-0.10821 -0.20193,-0.19653 -0.0101,-0.0287 -0.0225,-0.0284 -0.0551,0.001 -0.0561,0.0531 -0.14053,0.0488 -0.23212,-0.0101 -0.062,-0.0404 -0.0952,-0.0434 -0.17492,-0.0144 -0.24434,0.0851 -0.35734,-0.003 -0.19156,-0.15444 0.0786,-0.07 0.12581,-0.0859 0.26563,-0.0874 0.14976,-0.001 0.18201,0.0101 0.26977,0.0955 0.0975,0.0952 0.28409,0.15565 0.47099,0.15201 0.14427,-0.001 0.34061,0.0652 0.35934,0.12452 0.0101,0.0313 0.0453,0.0657 0.0788,0.0762 0.0874,0.0277 0.13735,0.13187 0.0902,0.18844 -0.0447,0.0537 -0.12466,0.0528 -0.30274,-0.001 z m 0.41536,0.0413 c -0.0635,-0.0906 -0.062,-0.10186 0.0225,-0.14009 0.0893,-0.0407 0.2829,0.0144 0.29648,0.0868 0.0101,0.0522 -0.11095,0.12235 -0.21094,0.12235 -0.0323,0 -0.0811,-0.0312 -0.10763,-0.0694 z m -11.17929,0.0401 c -0.0551,-0.034 -0.0263,-0.11239 0.0578,-0.1572 0.0521,-0.0279 0.0684,-0.025 0.084,0.0144 0.0261,0.0684 -0.0833,0.17743 -0.14197,0.1411 z m 2.77244,0.7647 c 0,-0.0271 0.0225,-0.0495 0.0495,-0.0495 0.0551,0 0.0453,0.0672 -0.0115,0.0864 -0.0208,0.009 -0.0372,-0.0101 -0.0372,-0.0372 z m 0.97462,0.0547 c -0.0603,-0.025 -0.0476,-0.13534 0.0144,-0.1349 0.0856,4.9e-4 0.14356,0.0509 0.12235,0.10561 -0.0208,0.0496 -0.0638,0.0594 -0.13822,0.0291 z m -0.86025,0.24937 c -0.0115,-0.0115 -0.0208,-0.045 -0.0208,-0.075 0,-0.0388 0.0173,-0.0496 0.0623,-0.0378 0.069,0.0173 0.0872,0.13389 0.0208,0.13389 -0.0225,0 -0.0509,-0.0101 -0.0623,-0.0208 z m 1.27561,0.0418 c -0.11426,-0.0834 0.0115,-0.1953 0.13332,-0.11831 0.0537,0.0339 0.0345,0.14038 -0.0274,0.15236 -0.026,0.003 -0.0736,-0.0101 -0.10619,-0.0341 z m 2.70953,0.0698 c -0.032,-0.0516 0.0341,-0.0995 0.10619,-0.0769 0.0391,0.0115 0.0573,0.0375 0.0466,0.0657 -0.0208,0.0528 -0.12235,0.0603 -0.15288,0.0115 z m -1.76042,0.22089 c 0,-0.0173 0.0144,-0.0312 0.0312,-0.0312 0.0173,0 0.0312,0.0144 0.0312,0.0312 0,0.0173 -0.0144,0.0312 -0.0312,0.0312 -0.0173,0 -0.0312,-0.0144 -0.0312,-0.0312 z m -1.44395,0.0426 c -0.0491,-0.049 -0.0208,-0.10922 0.0485,-0.0995 0.0387,0.003 0.07,0.031 0.07,0.0563 0,0.0496 -0.0821,0.0796 -0.11845,0.0433 z m -0.43948,-0.0294 c -0.0271,-0.0707 0.0384,-0.14312 0.1186,-0.13187 0.046,0.009 0.0651,0.032 0.0651,0.0873 0,0.0609 -0.0173,0.0799 -0.082,0.0874 -0.054,0.009 -0.0884,-0.009 -0.102,-0.0427 z m 4.53438,0.0958 c 0,-0.009 0.009,-0.0144 0.0144,-0.0144 0.009,0 0.0144,0.009 0.0144,0.0144 0,0.009 -0.009,0.0144 -0.0144,0.0144 -0.009,0 -0.0144,-0.009 -0.0144,-0.0144 z m -0.88887,0.0144 c -0.0279,-0.045 0.0101,-0.0935 0.0746,-0.0935 0.0718,0 0.0968,0.0267 0.0759,0.0811 -0.0208,0.0502 -0.12192,0.0589 -0.15045,0.0115 z m -2.30008,-10e-4 c -0.03,-0.0173 -0.0547,-0.0589 -0.0547,-0.0926 0,-0.0341 -0.0225,-0.0958 -0.0491,-0.13692 -0.0707,-0.10806 -0.046,-0.21165 0.0586,-0.2483 0.11427,-0.0398 0.19074,0.009 0.20113,0.12639 0.025,0.28225 0.0225,0.30008 -0.0391,0.34135 -0.0436,0.0291 -0.0788,0.0322 -0.11701,0.0101 z m 0.54178,0.25584 c -0.0502,-0.032 -0.0208,-0.0964 0.0449,-0.0964 0.025,0 0.0449,0.0283 0.0449,0.0623 0,0.0677 -0.0225,0.0765 -0.0897,0.0339 z m 0.41557,0.0564 c -0.0322,-0.0521 0.0401,-0.11182 0.0833,-0.0685 0.0361,0.0361 0.0115,0.10244 -0.0346,0.10244 -0.0144,0 -0.0371,-0.0144 -0.0485,-0.0339 z m -1.04419,-0.0303 c -0.0527,-0.0984 0.0115,-0.15444 0.16552,-0.14428 0.24083,0.0144 0.23035,0.20844 -0.0115,0.20844 -0.0893,0 -0.1287,-0.0173 -0.15444,-0.0643 z m -0.39568,0.0252 c -0.0685,-0.0886 -0.0703,-0.11759 -0.0101,-0.17826 0.0781,-0.078 0.26613,-0.0871 0.29409,-0.0144 0.0361,0.0933 0.0173,0.1362 -0.073,0.18367 -0.11181,0.0579 -0.17123,0.0603 -0.21118,0.009 z m 4.13927,0.0547 c 0,-0.009 0.009,-0.0144 0.0144,-0.0144 0.009,0 0.0144,0.009 0.0144,0.0144 0,0.009 -0.009,0.0144 -0.0144,0.0144 -0.009,0 -0.0144,-0.009 -0.0144,-0.0144 z m -0.95294,0.003 c -0.0694,-0.0508 -0.0332,-0.11182 0.0658,-0.11182 0.0538,0 0.076,0.0173 0.076,0.059 0,0.0765 -0.0726,0.10359 -0.14211,0.0527 z m -0.87049,-0.0173 c -0.07,-0.0776 -0.0414,-0.15703 0.0564,-0.15703 0.10576,0 0.15911,0.0716 0.11499,0.15408 -0.0433,0.0808 -0.10013,0.082 -0.17157,0.003 z m 1.30107,0.0581 c -0.0423,-0.0144 -0.07,-0.0521 -0.07,-0.0915 0,-0.0548 0.0144,-0.0638 0.10142,-0.0557 0.0759,0.009 0.10374,0.0263 0.11081,0.076 0.0115,0.0788 -0.045,0.10705 -0.14212,0.071 z m 0.0606,0.21912 c 0.003,-0.0173 0.025,-0.0332 0.0408,-0.0332 0.0173,0 0.0346,0.0144 0.0408,0.0332 0.003,0.0173 -0.0115,0.0332 -0.0408,0.0332 -0.0287,0 -0.0469,-0.0144 -0.0408,-0.0332 z m -1.30942,0.0274 c -0.0571,-0.057 -0.045,-0.11856 0.0225,-0.11856 0.0821,0 0.11254,0.0586 0.0589,0.11236 -0.0345,0.0346 -0.0522,0.0361 -0.082,0.009 z m -1.90891,0.0144 c -0.084,-0.0303 -0.12494,-0.10633 -0.0912,-0.16963 0.0362,-0.0675 0.24232,-0.0814 0.30333,-0.0208 0.11442,0.11437 -0.0391,0.25216 -0.21217,0.19048 z m 4.61577,0.0224 c 0,-0.0173 0.0144,-0.031 0.0312,-0.031 0.0173,0 0.0312,0.0144 0.0312,0.031 0,0.0173 -0.0144,0.031 -0.0312,0.031 -0.0173,0 -0.0312,-0.0144 -0.0312,-0.031 z m -0.43662,0 c 0,-0.0173 0.0144,-0.031 0.0329,-0.031 0.0173,0 0.025,0.0144 0.0144,0.031 -0.0101,0.0173 -0.0252,0.031 -0.0329,0.031 -0.009,0 -0.0144,-0.0144 -0.0144,-0.031 z m -1.48489,-0.0115 c -0.0312,-0.0811 0.0115,-0.14782 0.089,-0.13688 0.0516,0.009 0.0703,0.031 0.0703,0.0881 0,0.057 -0.0208,0.0806 -0.0703,0.0881 -0.0423,0 -0.0778,-0.0101 -0.089,-0.0389 z m -0.42859,-0.0115 c -0.0453,-0.0498 -0.0453,-0.062 -0.001,-0.12375 0.0404,-0.0574 0.0418,-0.0858 0.0101,-0.17556 -0.0312,-0.0863 -0.031,-0.11629 0.001,-0.15582 0.10676,-0.1287 0.25635,0.0384 0.1903,0.21266 -0.0173,0.0475 -0.0326,0.11947 -0.0326,0.16067 0,0.10489 -0.10114,0.15473 -0.16707,0.0821 z m -0.98802,-0.009 c -0.0488,-0.0915 0.0173,-0.16444 0.1235,-0.13833 0.19362,0.0475 0.20916,0.20275 0.0208,0.20275 -0.0782,0 -0.1186,-0.0173 -0.14356,-0.0642 z m -0.32916,-0.0115 c -0.0279,-0.0426 -0.0427,-0.0988 -0.0329,-0.12462 0.0225,-0.0561 0.14838,-0.0623 0.20091,-0.0101 0.0534,0.0535 0.046,0.17072 -0.0115,0.19323 -0.0808,0.031 -0.10273,0.0224 -0.156,-0.0592 z m 1.76863,0.33026 c -0.056,-0.0353 -0.0173,-0.0964 0.0603,-0.0964 0.0397,0 0.0606,0.0224 0.0606,0.062 0,0.0657 -0.0491,0.0798 -0.12091,0.0346 z m -2.2571,0.0144 c -0.0661,-0.0498 -0.0694,-0.11139 -0.0101,-0.19218 0.0387,-0.0527 0.0382,-0.0671 -0.001,-0.11254 -0.084,-0.0934 -0.0407,-0.16602 0.0988,-0.16602 0.12437,0 0.12437,0 0.12956,0.21839 0.001,0.12019 -0.0101,0.23583 -0.0271,0.25725 -0.0414,0.0498 -0.11874,0.0483 -0.18824,0 z m 3.58567,0.0555 c -0.0372,-0.0368 0.0433,-0.10579 0.12379,-0.10579 0.056,0 0.0736,0.0144 0.0661,0.0548 -0.0101,0.0555 -0.14855,0.0925 -0.18988,0.0512 z m -0.43901,-0.0748 c -0.0698,-0.0831 -0.075,-0.10562 -0.0453,-0.19485 0.0457,-0.13736 0.10821,-0.20221 0.15288,-0.15756 0.025,0.0252 0.025,0.0519 0.001,0.0947 -0.025,0.0462 -0.0173,0.0843 0.0301,0.16304 0.11311,0.18579 7.2e-4,0.26189 -0.13938,0.0947 z m -0.41519,0.0447 c -0.0101,-0.0267 0.001,-0.07 0.027,-0.0952 0.0404,-0.0404 0.0508,-0.0404 0.0858,0 0.0225,0.026 0.0315,0.0692 0.0225,0.095 -0.025,0.062 -0.11052,0.0606 -0.13433,0 z m -0.90857,0.0115 c -0.0944,-0.0944 -0.009,-0.15484 0.12264,-0.0851 0.0499,0.026 0.0548,0.0426 0.0253,0.0781 -0.045,0.0541 -0.098,0.057 -0.14786,0.009 z m -0.40542,0 c -0.0508,-0.0505 -0.0475,-0.13926 0.003,-0.15968 0.0583,-0.0224 0.11311,0.0375 0.11311,0.12495 0,0.0777 -0.0583,0.0945 -0.11845,0.0346 z m 3.49863,0.0548 c -0.0101,-0.0252 -0.009,-0.0592 0.001,-0.0765 0.0302,-0.049 0.11095,0 0.11095,0.0628 0,0.0692 -0.0874,0.0798 -0.11312,0.0144 z m -1.3685,0.23236 c -0.0253,-0.0411 0.0115,-0.0995 0.0488,-0.0765 0.0378,0.0224 0.0375,0.10763 -3.2e-4,0.10763 -0.0144,0 -0.0382,-0.0144 -0.0486,-0.031 z m -1.34081,4.3e-4 c -0.0115,-0.0209 -0.003,-0.0541 0.0144,-0.0781 0.0436,-0.0527 0.17209,-0.0144 0.17209,0.0498 0,0.0527 -0.15703,0.076 -0.18698,0.0281 z m -1.75616,-0.009 c -0.0658,-0.0657 -0.0433,-0.14716 0.0478,-0.16967 0.0851,-0.0224 0.0851,-0.0224 -0.0225,-0.0577 -0.0811,-0.0267 -0.11095,-0.0563 -0.11831,-0.11574 -0.0173,-0.15561 0.15547,-0.23258 0.29883,-0.13216 0.0864,0.0606 0.0884,0.14255 0.003,0.21767 -0.0551,0.0498 -0.0573,0.0613 -0.0144,0.0843 0.10114,0.0563 0.0336,0.21094 -0.0925,0.21094 -0.0361,0 -0.0822,-0.0173 -0.10302,-0.0375 z m 2.21369,0.0281 c -0.071,-0.0856 0.0856,-0.17472 0.15877,-0.0906 0.0251,0.0289 0.0395,0.07 0.0313,0.0915 -0.0173,0.0512 -0.14786,0.0505 -0.19051,0 z m -0.84442,0.0115 c -0.0521,-0.0332 -0.0251,-0.12091 0.045,-0.14817 0.0274,-0.0101 0.072,0 0.0996,0.0303 0.0408,0.0411 0.0424,0.0584 0.0101,0.0977 -0.045,0.0548 -0.0902,0.0606 -0.15409,0.0209 z m -0.55684,0.009 c -0.0806,-0.0339 -0.0349,-0.10359 0.0897,-0.13707 0.0935,-0.0252 0.13822,-0.0252 0.16309,-3.6e-4 0.0834,0.0834 -0.11946,0.1937 -0.25277,0.13736 z m 4.60802,0.0548 c 0,-0.0411 0.0806,-0.0998 0.10417,-0.0762 0.0426,0.0426 0.0173,0.10374 -0.0418,0.10374 -0.0345,0 -0.0623,-0.0115 -0.0623,-0.0274 z m -1.85103,0.0224 c -0.0694,-0.039 -0.0651,-0.1098 0.0101,-0.1494 0.0824,-0.0447 0.22837,0.0115 0.21492,0.0824 -0.0115,0.0642 -0.1534,0.10619 -0.22363,0.0671 z m 0.96035,0.0224 c -0.0485,-0.0361 -0.0537,-0.0563 -0.026,-0.10114 0.0457,-0.0745 0.17951,-0.0746 0.19364,-3.6e-4 0.0101,0.0548 -0.0433,0.14666 -0.0858,0.14666 -0.0115,0 -0.0486,-0.0209 -0.0821,-0.0447 z m -4.60134,0.18179 c -0.0361,-0.0433 -0.0313,-0.0592 0.031,-0.10922 0.0884,-0.0714 0.13952,-0.0739 0.20401,-0.0101 0.0646,0.0649 0.062,0.098 -0.0115,0.13707 -0.0874,0.0469 -0.17555,0.0397 -0.22337,-0.0173 z m 2.30046,0.0606 c -0.0115,-0.0115 -0.0208,-0.0462 -0.0208,-0.078 0,-0.0685 0.14009,-0.0808 0.16586,-0.0144 0.0287,0.0746 -0.0883,0.14875 -0.14474,0.0923 z m -0.90876,-0.0224 c -0.0843,-0.062 -0.0401,-0.14471 0.077,-0.14471 0.10735,0 0.15305,0.0685 0.0933,0.14053 -0.0478,0.0577 -0.0958,0.0592 -0.17036,0 z m 2.68646,0.0838 c -0.0115,-0.0115 -0.0208,-0.0476 -0.0208,-0.0799 0,-0.0918 0.16811,-0.0635 0.18159,0.031 0.009,0.0563 -0.003,0.07 -0.0651,0.07 -0.0413,0 -0.0843,-0.0101 -0.0958,-0.0209 z m -0.44249,-0.0426 c -0.0718,-0.0796 -0.0277,-0.13317 0.098,-0.1186 0.098,0.0115 0.14197,0.10836 0.0695,0.15409 -0.0652,0.0411 -0.10561,0.0332 -0.16742,-0.0353 z m -0.37697,0.0498 c -0.0225,-0.0563 0.0398,-0.17407 0.0902,-0.17349 0.0208,3.6e-4 0.0581,0.0115 0.0831,0.0289 0.0364,0.0224 0.0382,0.044 0.009,0.10878 -0.0398,0.0874 -0.1534,0.10994 -0.18158,0.0361 z m 2.24111,0.0534 c -0.0615,-0.0224 -0.0453,-0.1274 0.0225,-0.14926 0.0737,-0.0224 0.12494,0 0.12494,0.0635 0,0.0519 -0.0926,0.10591 -0.1482,0.086 z m -0.92701,-0.0281 c -0.0439,-0.044 -0.0449,-0.0592 -0.009,-0.11701 0.06,-0.091 0.16431,-0.102 0.20714,-0.0224 0.0747,0.13952 -0.0876,0.25177 -0.2009,0.13851 z m 0.3764,0.0411 c -0.0708,-0.0519 -0.0557,-0.18843 0.0225,-0.20336 0.0313,0 0.091,0 0.13259,0.009 0.10503,0.026 0.10302,0.15128 -0.003,0.19983 -0.097,0.044 -0.0846,0.0447 -0.15167,0 z m -3.14773,0.20697 c -0.0115,-0.0115 -0.0208,-0.0462 -0.0208,-0.0762 0,-0.0447 0.025,-0.0548 0.12465,-0.0505 0.0938,0 0.12466,0.0173 0.12466,0.057 0,0.0746 -0.17157,0.12668 -0.22862,0.0692 z m 3.08068,0.0173 c -0.0115,-0.0173 -0.009,-0.0476 0.0101,-0.0649 0.046,-0.0462 0.14474,-0.0173 0.15686,0.0447 0.009,0.0397 -0.0101,0.0541 -0.0682,0.0541 -0.0433,0 -0.0876,-0.0144 -0.0995,-0.0339 z m -2.16587,-0.0296 c 0,-0.0786 0.0786,-0.11254 0.14096,-0.0613 0.0778,0.0649 0.0551,0.12451 -0.047,0.12451 -0.0734,0 -0.0935,-0.0144 -0.0935,-0.0635 z m 2.72462,0.0476 c -0.0263,-0.0685 0.0277,-0.11672 0.11759,-0.10388 0.0496,0.009 0.0737,0.031 0.0737,0.0727 0,0.0814 -0.16206,0.10806 -0.19155,0.031 z m -1.84662,0.0209 c -0.0574,-0.0361 -0.0323,-0.14096 0.0372,-0.15409 0.1437,-0.0274 0.29956,0.0926 0.20089,0.15546 -0.0522,0.0332 -0.18469,0.0325 -0.23809,0 z m -1.27824,-0.0224 c -0.0326,-0.0368 -0.0335,-0.057 -0.003,-0.0925 0.0486,-0.0584 0.13678,-0.0577 0.18553,0 0.091,0.10936 -0.0864,0.1986 -0.18159,0.0912 z m 3.571,0.0599 c -0.0397,-0.0397 -0.0208,-0.0727 0.0415,-0.0727 0.0346,0 0.0623,0.0209 0.0623,0.0469 0,0.0476 -0.0661,0.0642 -0.10388,0.026 z m -1.82967,-0.0664 c 0,-0.14753 0.13317,-0.21793 0.21815,-0.11571 0.0561,0.0678 -0.0375,0.20292 -0.14096,0.20292 -0.0638,0 -0.0772,-0.0144 -0.0772,-0.0873 z m -2.21025,0.28646 c -0.0606,-0.13317 0.0612,-0.21288 0.22738,-0.14925 0.0814,0.031 0.0612,0.16534 -0.0309,0.20033 -0.1222,0.0462 -0.15617,0.0375 -0.19675,-0.0512 z m -0.49683,0.044 c -0.0609,-0.0606 -0.0433,-0.14038 0.046,-0.20545 0.0834,-0.0606 0.0834,-0.0606 0.0144,-0.0972 -0.1271,-0.0685 -0.056,-0.23763 0.0908,-0.21591 0.10388,0.0144 0.14342,0.0988 0.092,0.19492 -0.0374,0.07 -0.0361,0.0873 0.0115,0.1411 0.0378,0.0418 0.0495,0.0864 0.0356,0.14053 -0.0173,0.0671 -0.0375,0.0794 -0.13793,0.0794 -0.0648,0 -0.13475,-0.0173 -0.15547,-0.0375 z m 4.52723,0.0534 c -0.0277,-0.0721 0.0101,-0.14038 0.0796,-0.14038 0.0772,0 0.10618,0.0447 0.0808,0.12495 -0.0225,0.0726 -0.13418,0.0832 -0.16033,0.0144 z m -0.44958,0 c -0.0371,-0.0447 -0.0345,-0.0577 0.0173,-0.0952 0.0796,-0.0584 0.1248,-0.039 0.1248,0.0527 0,0.0906 -0.082,0.11514 -0.14211,0.0426 z m -0.43693,0.0382 c -0.0418,-0.0209 -0.0806,-0.0693 -0.086,-0.1072 -0.009,-0.0606 0.003,-0.0693 0.10013,-0.0693 0.0985,0 0.17473,0.0599 0.17473,0.13707 0,0.0498 -0.11931,0.0739 -0.18927,0.0397 z m -3.09342,0.23734 c -0.12264,-0.0115 -0.15686,-0.0808 -0.0796,-0.15805 0.0984,-0.0984 0.33373,0.009 0.27235,0.12234 -0.0173,0.0317 -0.0414,0.0563 -0.0537,0.0534 -0.0115,0 -0.0747,-0.0101 -0.13937,-0.0173 z m 3.95221,0.11499 c -0.0346,-0.0563 0.076,-0.19052 0.14786,-0.17991 0.0933,0.0144 0.14096,0.1007 0.0893,0.1631 -0.046,0.0556 -0.2059,0.0671 -0.23685,0.0173 z m -0.43639,-0.0101 c -0.0496,-0.0361 -0.0537,-0.0563 -0.025,-0.1196 0.0287,-0.0628 0.0521,-0.0737 0.1313,-0.062 0.0739,0.0101 0.0964,0.0303 0.0964,0.0822 0,0.12912 -0.0975,0.1771 -0.20319,0.0997 z m 0.87765,0.37022 c -0.0603,-0.0606 -0.0625,-0.0838 -0.0115,-0.13331 0.0987,-0.0987 0.26255,2.9e-4 0.19032,0.11499 -0.0444,0.0707 -0.11759,0.078 -0.17723,0.0173 z m 0.48955,0.88698 c -0.0433,-0.0433 0.0101,-0.22688 0.0848,-0.29469 0.0482,-0.0433 0.0685,-0.0418 0.21417,0.0144 0.0886,0.0346 0.18658,0.0635 0.21766,0.0635 0.0528,0 0.15963,0.0897 0.15963,0.13432 0,0.0101 -0.0335,0.0426 -0.0745,0.0685 -0.0677,0.0447 -0.0843,0.044 -0.18802,0 -0.1072,-0.0512 -0.11875,-0.0512 -0.20341,0 -0.10373,0.0613 -0.16309,0.0671 -0.21041,0.0209 z m -11.35909,-9.21054 c -0.0564,-0.0564 -0.0781,0.003 -0.0335,0.0949 0.0423,0.0858 0.0423,0.0858 0.0547,0.0115 0.009,-0.0407 -0.001,-0.0886 -0.0208,-0.1072 z m 0.52702,0.36983 c 0,-0.025 -0.0144,-0.0537 -0.0312,-0.0643 -0.0173,-0.0101 -0.0312,0.0101 -0.0312,0.0449 0,0.0353 0.0144,0.0643 0.0312,0.0643 0.0173,0 0.0312,-0.0208 0.0312,-0.0449 z m -4.08557,0.89926 c 0,-0.0716 -0.0661,-0.0824 -0.1235,-0.0208 -0.0548,0.0589 -0.054,0.0606 0.0336,0.0606 0.0521,0 0.09,-0.0173 0.09,-0.0397 z m 2.36283,0.091 c -0.03,-0.009 -0.086,-0.009 -0.12466,-5.1e-4 -0.0388,0.009 -0.0144,0.0144 0.054,0.0144 0.0685,3.3e-4 0.10056,-0.003 0.0707,-0.0115 z m -0.4232,0.0101 c 0.0144,0.009 0.0413,0.003 0.0606,-0.009 0.0622,-0.0384 -0.19717,-0.14457 -0.26938,-0.11052 -0.0345,0.0144 -0.0871,0.0374 -0.11701,0.0469 -0.03,0.0101 -0.0547,0.0365 -0.0547,0.0599 0,0.0336 0.0365,0.0375 0.17743,0.0173 0.0977,-0.0115 0.18907,-0.0173 0.20277,-0.009 z m -0.97036,0.0115 c 0.0144,0 0.0812,-0.0476 0.14578,-0.1059 0.0646,-0.0583 0.17679,-0.12192 0.24958,-0.14169 0.0772,-0.0208 0.13231,-0.054 0.13231,-0.0799 0,-0.0596 -0.116,-0.11859 -0.19322,-0.0985 -0.0814,0.0225 -0.14976,-0.009 -0.14976,-0.0609 0,-0.0516 -0.0499,-0.0574 -0.0798,-0.0101 -0.0115,0.0208 -0.062,0.0283 -0.11181,0.0208 -0.12192,-0.0173 -0.17474,0.046 -0.1212,0.1463 0.0345,0.0643 0.031,0.089 -0.025,0.1795 -0.0603,0.0977 -0.0612,0.10734 -0.0115,0.14096 0.0291,0.0208 0.0718,0.03 0.0945,0.0225 0.0225,-0.009 0.0544,-0.0144 0.07,-0.0144 z m 2.23899,0.0208 c 0.0434,-0.0522 0.0144,-0.0828 -0.0772,-0.0828 -0.0864,0 -0.12985,0.059 -0.0708,0.0964 0.0613,0.0388 0.1082,0.0345 0.1482,-0.0115 z m -5.80126,1.13942 c -0.032,-0.0225 -0.0582,-0.0638 -0.0582,-0.0921 0,-0.0707 -0.0553,-0.0101 -0.0633,0.0703 -0.001,0.0345 -0.003,0.10201 -0.001,0.14994 0.001,0.0876 0.001,0.0876 0.0926,0 0.085,-0.0834 0.0864,-0.0897 0.0312,-0.12841 z m 0.80423,0.71805 c -0.0447,-0.0447 -0.0509,-0.044 -0.0694,10e-4 -0.0101,0.0289 -10e-4,0.0746 0.0208,0.101 0.0362,0.0434 0.0433,0.0433 0.0694,-10e-4 0.0208,-0.0364 0.0144,-0.0665 -0.0208,-0.101 z m 0.0101,0.3831 c 0,-0.11744 -7.2e-4,-0.11859 -0.0756,-0.0902 -0.0583,0.0225 -0.0648,0.10922 -0.0115,0.16206 0.0626,0.0626 0.0873,0.0426 0.0873,-0.0718 z m 3.19635,0.12091 c 0.0511,-0.0781 0.0509,-0.0846 -0.009,-0.14341 -0.0594,-0.0594 -0.0641,-0.0596 -0.12638,-0.003 -0.062,0.0528 -0.0623,0.0594 -0.0115,0.14341 0.0641,0.10835 0.0798,0.10922 0.14734,0.003 z m -3.62398,0.0502 c -0.0208,-0.0786 0.0407,-0.15478 0.1274,-0.15911 0.0465,-0.001 0.0372,-0.0101 -0.03,-0.0261 -0.0528,-0.0115 -0.11253,-0.0332 -0.13259,-0.0453 -0.025,-0.0144 -0.0362,0.009 -0.0361,0.0651 4.8e-4,0.11456 0.0315,0.22787 0.0625,0.22787 0.0115,0 0.0173,-0.0283 0.009,-0.0625 z m 3.6579,0.22239 c -0.0225,-0.0356 -0.14254,-0.0674 -0.14254,-0.0372 0,0.0395 0.0391,0.0646 0.10056,0.0646 0.0323,0 0.0512,-0.0115 0.0423,-0.0274 z m -3.18506,0.009 c 0.0144,-0.0557 0.003,-0.0985 -0.027,-0.13057 -0.0426,-0.0426 -0.0544,-0.0416 -0.11254,0.0115 -0.0651,0.0589 -0.0651,0.0589 -7.2e-4,0.0828 0.0353,0.0115 0.0641,0.045 0.0641,0.0716 0,0.0788 0.054,0.0538 0.0765,-0.0352 z m 10e-4,0.33154 c 0.0309,-0.0496 -0.0173,-0.22239 -0.0579,-0.20892 -0.0208,0.009 -0.0496,0.0502 -0.0661,0.097 -0.0225,0.0651 -0.0208,0.0918 0.0144,0.11398 0.0594,0.0374 0.0843,0.0372 0.10835,-0.001 z m 5.76927,0.0944 c 0.0284,-0.046 -0.0101,-0.0935 -0.0613,-0.0739 -0.025,0.0101 -0.0362,0.0365 -0.027,0.0612 0.0208,0.0516 0.0606,0.0574 0.0883,0.0115 z m -3.11786,-0.0869 c -0.0283,-0.0736 -0.0769,0.0101 -0.0548,0.0936 0.0144,0.0563 0.0208,0.0573 0.0457,0.0101 0.0144,-0.0287 0.0208,-0.0756 0.0101,-0.10388 z m 3.60124,0.44748 c 0,-0.025 -0.0144,-0.0843 -0.0349,-0.13259 -0.0349,-0.0876 -0.0349,-0.0876 -0.0652,-7.2e-4 -0.0225,0.062 -0.0208,0.0998 0.009,0.13259 0.0485,0.0583 0.0926,0.0589 0.0926,7.2e-4 z m -7.07959,0.21616 c 0.0225,-0.0258 0.0547,-0.0469 0.0739,-0.0475 0.0208,-3.5e-4 0.0561,-0.0144 0.0821,-0.0303 0.0397,-0.0252 0.0362,-0.0374 -0.0225,-0.0794 -0.14168,-0.0997 -0.0522,-0.22987 0.12696,-0.18469 0.0426,0.0101 0.1072,0.003 0.14313,-0.0144 0.0652,-0.0349 0.0652,-0.0349 -10e-4,-0.12668 -0.0563,-0.076 -0.062,-0.1046 -0.0335,-0.16725 0.0398,-0.0876 0.025,-0.11311 -0.0719,-0.11311 -0.0633,0 -0.0675,0.0115 -0.0531,0.14038 0.0144,0.13389 0.0115,0.14038 -0.0641,0.14038 -0.10359,0 -0.13851,-0.10013 -0.0713,-0.20298 0.046,-0.0707 0.0444,-0.0828 -0.0267,-0.19342 -0.12754,-0.19863 -0.16482,-0.22739 -0.2943,-0.22739 -0.14664,0 -0.20652,0.0603 -0.17723,0.1793 0.0638,0.2624 0.0677,0.3591 0.0225,0.56873 -0.0466,0.21665 -0.046,0.22014 0.025,0.29537 0.10143,0.10806 0.28036,0.1411 0.34454,0.0638 z m 7.57859,0.0469 c 0,-0.0173 -0.0144,-0.0312 -0.0329,-0.0312 -0.0173,0 -0.025,0.0144 -0.0144,0.0312 0.0101,0.0173 0.0252,0.0312 0.0329,0.0312 0.009,0 0.0144,-0.0144 0.0144,-0.0312 z m -3.67688,0.30259 c -0.0401,-0.0398 -0.0807,-0.0101 -0.0511,0.0388 0.0115,0.0173 0.0352,0.025 0.0527,0.0144 0.0225,-0.0115 0.0208,-0.0303 -0.001,-0.0531 z m 4.58338,0.13303 c 0.0824,-0.0444 0.0756,-0.10677 -0.0173,-0.14855 -0.0921,-0.0418 -0.1248,-0.009 -0.0969,0.10475 0.0225,0.086 0.0294,0.089 0.1134,0.0439 z m 0.83955,0.28954 c -5.1e-4,-0.0577 -0.0603,-0.17053 -0.062,-0.11701 -5.1e-4,0.0173 -0.0101,0.0628 -0.0208,0.10114 -0.0144,0.0519 -0.003,0.07 0.0315,0.07 0.0277,0 0.0501,-0.0252 0.0499,-0.0548 z m 0.44386,0.42602 c -0.001,-0.0548 -0.0173,-0.11355 -0.0349,-0.13133 -0.0485,-0.0483 -0.076,0.0519 -0.0511,0.18536 0.026,0.13836 0.0902,0.098 0.086,-0.0541 z m 0.0173,0.24657 c -0.0208,-0.0577 -0.0864,-0.0671 -0.0864,-0.0115 0,0.0267 0.0225,0.0498 0.0495,0.0498 0.0271,0 0.0439,-0.0173 0.0372,-0.0368 z m -2.36311,0.61405 c 0,-0.009 -0.009,-0.0144 -0.0144,-0.0144 -0.009,0 -0.0144,0.009 -0.0144,0.0144 0,0.009 0.009,0.0144 0.0144,0.0144 0.009,0 0.0144,-0.009 0.0144,-0.0144 z m -0.0623,0.031 c 0,-0.009 -0.009,-0.0144 -0.0144,-0.0144 -0.009,0 -0.0144,0.009 -0.0144,0.0144 0,0.009 0.009,0.0144 0.0144,0.0144 0.009,0 0.0144,-0.009 0.0144,-0.0144 z m 7.74847,0.54314 c -0.0101,-0.0173 -0.0315,-0.0224 -0.0478,-0.0115 -0.0173,0.0101 -0.0225,0.031 -0.0115,0.0476 0.0101,0.0173 0.0315,0.0224 0.0478,0.0115 0.0173,-0.0101 0.0225,-0.031 0.0115,-0.0476 z m -0.85597,0 c 0,-0.0786 -0.0586,-0.10359 -0.15704,-0.0671 -0.075,0.0281 -0.075,0.0281 0.0173,0.0778 0.12192,0.0664 0.13938,0.0649 0.13938,-0.0101 z m -6.20198,0.17847 c 0.0464,-0.0353 0.0426,-0.0483 -0.0388,-0.13952 -0.0808,-0.0906 -0.0972,-0.0968 -0.1598,-0.0613 -0.0384,0.0224 -0.0871,0.0606 -0.10821,0.086 -0.0873,0.10576 0.18491,0.20776 0.30688,0.11499 z m 5.76532,0.07 c 0,-0.0519 -0.0912,-0.07 -0.14111,-0.0281 -0.069,0.057 5.1e-4,0.1349 0.0821,0.0912 0.0323,-0.0173 0.059,-0.0455 0.059,-0.0628 z m -4.27272,0.15705 c 0,-0.0756 -0.0893,-0.11874 -0.1248,-0.0613 -0.0365,0.0591 -0.001,0.12451 0.0661,0.12451 0.0387,0 0.059,-0.0224 0.059,-0.0635 z m -5.09716,-2.83393 c -0.0101,-0.0144 0.0101,-0.0612 0.0427,-0.10143 0.0563,-0.0687 0.0635,-0.07 0.11326,-0.0225 0.0292,0.0287 0.0447,0.0744 0.0341,0.10143 -0.0208,0.0522 -0.16119,0.0682 -0.19052,0.0225 z m 0.46515,0.0144 c -0.0502,-0.0371 -0.0531,-0.0509 -0.0173,-0.0935 0.054,-0.0651 0.12639,-0.0638 0.17535,0.001 0.0822,0.11239 -0.0352,0.17971 -0.15755,0.0906 z m 0.52187,0.0397 c -0.0863,-0.032 -0.0882,-0.0944 -0.003,-0.1695 0.0796,-0.072 0.165,-0.0309 0.1793,0.0864 0.0101,0.0897 -0.0622,0.12466 -0.17432,0.0831 z m 0.85885,0.2946 c -0.085,-0.0225 -0.0643,-0.0923 0.0407,-0.13577 0.10806,-0.0449 0.16707,-0.0115 0.14924,0.0833 -0.0101,0.0583 -0.089,0.0798 -0.18968,0.0527 z m -0.48495,0.0144 c -0.0945,-0.0947 -0.0101,-0.17348 0.1287,-0.12062 0.10186,0.0384 0.10878,0.11254 0.0115,0.13837 -0.0952,0.0252 -0.0994,0.025 -0.14197,-0.0173 z m -0.44259,0.0225 c -0.0633,-0.0762 -0.0144,-0.14096 0.10807,-0.14096 0.0897,0 0.11008,0.0115 0.11008,0.0632 0,0.0388 -0.0303,0.0747 -0.0799,0.0935 -0.10013,0.0378 -0.0923,0.0388 -0.13793,-0.0144 z m -0.48149,-0.003 c -0.0589,-0.0589 -0.0609,-0.0824 -0.0115,-0.13187 0.0955,-0.0955 0.35672,0.0349 0.27275,0.13605 -0.0495,0.0594 -0.19987,0.057 -0.26116,-0.003 z m -0.43661,0.031 c -0.0958,-0.0958 -0.0469,-0.17722 0.12566,-0.20993 0.16431,-0.031 0.23361,0.11615 0.0988,0.21043 -0.0883,0.062 -0.1624,0.0615 -0.22463,-5e-4 z m 0.86729,0.2532 c -0.0267,-0.0693 0.0144,-0.1108 0.10878,-0.1108 0.10388,0 0.20919,0.0707 0.17847,0.11975 -0.0329,0.0534 -0.26626,0.0454 -0.28737,-0.0101 z m -0.31593,0.0115 c -0.084,-0.0339 -0.0902,-0.0799 -0.0144,-0.11845 0.0947,-0.0491 0.20672,0.0224 0.17314,0.10893 -0.0173,0.0476 -0.0571,0.0498 -0.15756,0.0101 z m 0.75504,0.0281 c -0.0225,-0.0726 0.0352,-0.13072 0.10503,-0.10489 0.0225,0.009 0.0544,0.0144 0.07,0.0144 0.0144,0 0.0287,0.0346 0.0287,0.078 0,0.0657 -0.0144,0.078 -0.0915,0.078 -0.0658,0 -0.0975,-0.0173 -0.1124,-0.0664 z m 1.45705,0.0628 c -0.0516,-0.0209 -0.0695,-0.0476 -0.0623,-0.0977 0.0115,-0.0869 0.17993,-0.11614 0.24135,-0.0426 0.0716,0.086 -0.0564,0.18598 -0.17908,0.13995 z m -1.31517,0.20678 c -0.0312,-0.0375 -0.0287,-0.0498 0.0144,-0.0664 0.0613,-0.0224 0.12697,0.0303 0.0968,0.0789 -0.0287,0.0462 -0.0648,0.0426 -0.11052,-0.0115 z m 1.79653,0.0997 c -0.0527,-0.0382 -0.0522,-0.044 0.003,-0.11326 0.0508,-0.062 0.069,-0.0678 0.12711,-0.0361 0.0968,0.0519 0.0936,0.19031 -0.003,0.19031 -0.0397,0 -0.0968,-0.0173 -0.12711,-0.0404 z m -1.47871,0.0339 c -0.0571,-0.057 -0.0447,-0.14356 0.0261,-0.18157 0.12264,-0.0657 0.2416,0.0303 0.20029,0.16101 -0.0208,0.0671 -0.1669,0.0799 -0.22637,0.0209 z m 1.96639,0.2975 c -0.0561,-0.0224 -0.0478,-0.0938 0.0115,-0.11744 0.0613,-0.0224 0.15184,0.0541 0.12119,0.10388 -0.0225,0.0361 -0.0682,0.0404 -0.13432,0.0115 z m -1.05442,0.0382 c -0.0478,-0.0353 -0.0527,-0.0527 -0.0225,-0.0833 0.03,-0.0303 0.056,-0.0303 0.12019,0 0.0675,0.031 0.0752,0.0455 0.0439,0.0833 -0.0475,0.057 -0.0657,0.057 -0.14168,0 z m 1.32474,0.009 c -0.0509,-0.0947 0.0297,-0.17226 0.12567,-0.1209 0.0832,0.0447 0.0726,0.12552 -0.0208,0.15993 -0.0547,0.0209 -0.0772,0.0115 -0.1046,-0.039 z m -1.75362,0.0173 c -0.12134,-0.0657 -0.0964,-0.14197 0.0615,-0.18741 0.1072,-0.031 0.14053,-0.0296 0.19466,0.009 0.0812,0.057 0.082,0.0882 10e-4,0.16707 -0.0737,0.0737 -0.14009,0.0771 -0.25918,0.0115 z m 1.85135,0.28582 c -0.0615,-0.0739 -0.0144,-0.14817 0.084,-0.13678 0.0684,0.009 0.086,0.026 0.086,0.0876 0,0.0926 -0.10763,0.12365 -0.17001,0.049 z m -0.0933,0.99848 c -0.0496,-0.0599 0.0101,-0.17414 0.0893,-0.17414 0.10807,0 0.1072,0.0949 -0.001,0.17977 -0.0413,0.0317 -0.0573,0.031 -0.0882,0 z m 0.48751,0.23287 c 0.0882,-0.0534 0.0977,-0.0727 0.0824,-0.16585 -0.0144,-0.0873 -0.003,-0.11348 0.0599,-0.15553 0.0521,-0.0346 0.0833,-0.091 0.097,-0.17718 0.0144,-0.0997 0.0336,-0.12696 0.0832,-0.12696 0.0346,0 0.071,-0.0224 0.0811,-0.0476 0.0225,-0.0613 -0.0486,-0.14753 -0.10503,-0.12581 -0.0557,0.0224 -0.15098,-0.0281 -0.17536,-0.0915 -0.0101,-0.026 -0.003,-0.0824 0.0101,-0.12466 0.025,-0.062 0.0144,-0.0945 -0.0509,-0.17176 -0.0988,-0.11759 -0.0799,-0.19824 0.0395,-0.16831 0.11802,0.0303 0.07,-0.0354 -0.084,-0.11398 -0.11499,-0.0584 -0.13605,-0.0882 -0.12581,-0.17428 10e-4,-0.0209 -0.0397,-0.0534 -0.0932,-0.0752 -0.0534,-0.0224 -0.14665,-0.0737 -0.20693,-0.11499 -0.0977,-0.0664 -0.12552,-0.0714 -0.25145,-0.0447 -0.14312,0.0303 -0.28733,0 -0.28733,-0.0548 0,-0.0173 0.0115,-0.0657 0.0302,-0.10937 0.0362,-0.0952 -0.0271,-0.14257 -0.19198,-0.14344 -0.13057,0 -0.15963,-0.0209 -0.22812,-0.15568 -0.0958,-0.18864 -0.20916,-0.29729 -0.29899,-0.28686 -0.0449,0.003 -0.0985,-0.0115 -0.12062,-0.0388 -0.0544,-0.0652 -0.12451,-0.0609 -0.20318,0.0115 -0.12567,0.11827 -0.34209,0.0936 -0.32244,-0.0364 0.009,-0.0418 0.0476,-0.0762 0.11846,-0.0994 0.11859,-0.0384 0.16378,-0.13187 0.0724,-0.15045 -0.031,-0.003 -0.12638,3.9e-4 -0.21214,0.0144 -0.3274,0.054 -0.37638,0.0573 -0.44883,0.0303 -0.0459,-0.0173 -0.12119,-0.0144 -0.19529,0.003 -0.10619,0.0284 -0.1287,0.025 -0.18699,-0.0339 -0.0808,-0.0808 -0.0596,-0.15357 0.0586,-0.19987 0.0859,-0.0336 0.085,-0.0345 -0.0744,-0.076 -0.1072,-0.0283 -0.19301,-0.0329 -0.25655,-0.0144 -0.0828,0.025 -0.10894,0.0144 -0.19322,-0.0638 -0.098,-0.0918 -0.1534,-0.11456 -0.1534,-0.0638 0,0.0144 -0.0426,0.045 -0.0947,0.0665 -0.0786,0.0323 -0.11513,0.0312 -0.21465,-0.009 -0.11182,-0.0439 -0.12351,-0.0433 -0.17002,0.0115 -0.0563,0.0658 -0.13173,0.0736 -0.25525,0.0267 -0.077,-0.0294 -0.0822,-0.0418 -0.0641,-0.15582 0.0208,-0.11716 0.0144,-0.12437 -0.0596,-0.12437 -0.0716,0 -0.0786,0.0101 -0.0718,0.11109 0.0101,0.16448 -0.0561,0.19094 -0.24906,0.0984 -0.0557,-0.0267 -0.0677,-0.0516 -0.0531,-0.10922 0.0173,-0.072 -0.0263,-0.16222 -0.0798,-0.16222 -0.0362,0 -0.0707,0.20298 -0.049,0.28827 0.0115,0.0495 0.0574,0.0828 0.15132,0.11196 0.17313,0.0537 0.21191,0.0883 0.21216,0.18844 0,0.045 0.0225,0.12321 0.0482,0.1737 0.0447,0.0851 0.0434,0.098 -0.0144,0.17742 -0.0633,0.0856 -0.0633,0.0856 0.0288,0.17739 0.0765,0.0765 0.0984,0.0848 0.12812,0.049 0.0469,-0.0563 0.19738,-0.0563 0.24483,0 0.0225,0.0267 0.0291,0.086 0.0173,0.14977 -0.0173,0.0926 -0.0101,0.10994 0.0622,0.14254 0.0449,0.0209 0.12841,0.0375 0.18574,0.0375 0.1186,0 0.16552,0.0433 0.19238,0.17869 0.0208,0.10186 0.11514,0.16433 0.2495,0.16433 0.096,0 0.22688,0.0649 0.30598,0.15287 0.0737,0.0814 0.11196,0.0834 0.11196,0 0,-0.0759 0.0544,-0.0947 0.16378,-0.057 0.0858,0.0296 0.11326,0.0962 0.0547,0.13259 -0.0516,0.0317 -0.0361,0.0599 0.0672,0.11831 0.0952,0.0541 0.0997,0.0541 0.16551,-0.009 0.0372,-0.0346 0.085,-0.0635 0.10634,-0.0635 0.0225,0 7.2e-4,-0.0325 -0.0449,-0.0721 -0.0987,-0.085 -0.0856,-0.17992 0.0329,-0.23388 0.0674,-0.031 0.0834,-0.0252 0.13937,0.0541 0.0623,0.0876 0.0625,0.0894 0.001,0.16499 -0.059,0.075 -0.059,0.077 -4.1e-4,0.12739 0.0737,0.0635 0.11715,0.21642 0.0664,0.23337 -0.0516,0.0173 -0.0447,0.0858 0.0144,0.13433 0.0426,0.0354 0.0563,0.0332 0.0918,-0.0144 0.031,-0.0426 0.0329,-0.0707 0.009,-0.11095 -0.0426,-0.0685 -0.009,-0.21613 0.0571,-0.24109 0.0626,-0.0252 0.25745,0.0685 0.28275,0.13432 0.0115,0.0325 -0.009,0.0721 -0.0557,0.10936 -0.073,0.057 -0.0734,0.0599 -0.0144,0.10417 0.0326,0.0252 0.0683,0.0985 0.0786,0.16311 0.0115,0.0798 0.0374,0.12091 0.0762,0.12841 0.0491,0.0101 0.054,0 0.0356,-0.0869 -0.0225,-0.10706 0.0173,-0.17934 0.12351,-0.22017 0.0586,-0.0224 0.0563,-0.0274 -0.0294,-0.0606 -0.0511,-0.0209 -0.102,-0.0512 -0.11326,-0.0692 -0.0315,-0.0512 0.003,-0.1494 0.0687,-0.18345 0.0776,-0.0411 0.27034,0.0397 0.30281,0.12711 0.025,0.0642 0.0251,0.0642 0.0672,-0.0144 0.0329,-0.0613 0.0672,-0.0799 0.14837,-0.0799 0.0908,0 0.11182,0.0144 0.15063,0.10806 0.0469,0.11196 0.14665,0.18822 0.21293,0.16297 0.0208,-0.009 0.0726,0 0.11441,0.0281 0.045,0.0252 0.17472,0.0426 0.31635,0.0433 0.21191,0 0.24557,0.0101 0.28848,0.07 0.0759,0.10806 0.0594,0.17594 -0.0557,0.23084 -0.0843,0.0404 -0.10143,0.0642 -0.09,0.12437 0.0101,0.0527 0,0.0746 -0.0345,0.0746 -0.0668,0 -0.096,-0.0563 -0.0547,-0.10633 0.0395,-0.0476 0,-0.0907 -0.11441,-0.12567 -0.10734,-0.0332 -0.13923,0 -0.0874,0.1046 0.0397,0.0765 0.0395,0.0955 -0.001,0.15445 -0.026,0.0368 -0.0378,0.0814 -0.027,0.0995 0.0101,0.0173 0.025,0.0958 0.0294,0.17328 0.003,0.0776 0.0173,0.14976 0.0294,0.1608 0.0101,0.0101 0.0739,0.0224 0.14039,0.026 0.0661,0 0.16067,0.0274 0.20966,0.0534 0.12048,0.0635 0.1362,0.0628 0.25138,-0.009 z m 2.22341,0.0935 c 0.0776,-0.0599 0.0776,-0.0599 0.001,-0.14039 -0.0737,-0.0786 -0.0776,-0.0794 -0.13331,-0.0224 -0.0466,0.0469 -0.0516,0.0734 -0.0258,0.14111 0.0375,0.0987 0.0551,0.10143 0.15755,0.0224 z m 2.08506,0.13851 c 0.003,-0.0339 0.03,-0.0831 0.0522,-0.10879 0.0496,-0.057 0.025,-0.21837 -0.0336,-0.21837 -0.0586,0 -0.0894,0.0606 -0.0949,0.1872 -0.001,0.0599 -0.0144,0.13506 -0.0287,0.16687 -0.0208,0.0462 -0.0115,0.0556 0.0349,0.0462 0.0323,0 0.0638,-0.0397 0.07,-0.0734 z m -0.89952,0.11009 c 0.0387,-0.0252 0.0279,-0.0462 -0.0623,-0.12235 -0.10922,-0.0926 -0.10922,-0.0926 -0.16621,-0.0173 -0.0313,0.0418 -0.077,0.076 -0.10114,0.076 -0.0975,0 -0.0364,0.0592 0.0727,0.0707 0.0643,0.009 0.13793,0.0144 0.16379,0.0173 0.0258,0 0.0677,-0.009 0.0935,-0.0252 z m 3.10837,0.10359 c -0.0115,-0.0115 -0.0301,-0.0115 -0.0416,0 -0.0115,0.0115 -0.001,0.0209 0.0208,0.0209 0.0225,0 0.0322,-0.0101 0.0208,-0.0209 z m -12.56862,0.31185 c -0.0115,-0.0115 -0.0208,0 -0.0208,0.0209 0,0.0224 0.0101,0.0325 0.0208,0.0209 0.0115,-0.0115 0.0115,-0.0303 0,-0.0411 z m -0.63675,-3.0706 c -0.10388,-0.0303 -0.14009,-0.12466 -0.0652,-0.17068 0.0623,-0.0382 0.25437,-0.0173 0.30513,0.0353 0.044,0.0447 0.0418,0.0548 -0.025,0.10994 -0.082,0.0671 -0.0739,0.0664 -0.21492,0.0252 z m -0.538,0.27069 c 0,-0.0267 0.0144,-0.049 0.0312,-0.049 0.0173,0 0.0312,0.0115 0.0312,0.0296 0,0.0144 -0.0144,0.0375 -0.0312,0.049 -0.0173,0.0101 -0.0312,0 -0.0312,-0.0296 z m -0.0144,0.32564 c 0.0101,-0.0173 0.0253,-0.031 0.0329,-0.031 0.009,0 0.0144,0.0144 0.0144,0.031 0,0.0173 -0.0144,0.031 -0.0329,0.031 -0.0173,0 -0.025,-0.0144 -0.0144,-0.031 z m 0.90835,0.0772 c -0.0684,-0.0685 -0.0641,-0.16202 0.0101,-0.20791 0.0548,-0.0346 0.0561,-0.0447 0.0144,-0.12451 -0.0413,-0.0796 -0.0395,-0.0925 0.0173,-0.14979 0.0746,-0.0746 0.19551,-0.0819 0.26161,-0.0144 0.0374,0.0375 0.0404,0.0671 0.0144,0.14041 -0.0173,0.0512 -0.0457,0.0934 -0.0615,0.0934 -0.0173,0 -0.0144,0.0281 0.003,0.0635 0.0208,0.0353 0.03,0.10186 0.025,0.14818 -0.009,0.0721 -0.026,0.0856 -0.12292,0.0936 -0.073,0 -0.13086,-0.009 -0.16379,-0.0411 z m -0.33917,0.32556 c -0.07,-0.0411 -0.0707,-0.17241 -4.9e-4,-0.21165 0.0478,-0.0267 0.044,-0.0346 -0.0312,-0.0685 -0.10475,-0.0476 -0.10706,-0.0935 -0.0101,-0.20567 0.0747,-0.0871 0.0747,-0.0871 0,-0.15604 -0.0413,-0.0375 -0.0747,-0.0906 -0.0747,-0.11629 0,-0.0635 0.10879,-0.11805 0.21215,-0.10593 0.0664,0.009 0.0863,0.0281 0.0944,0.0976 0.003,0.0483 -0.003,0.1059 -0.025,0.12841 -0.025,0.0303 -0.0225,0.0505 0.0101,0.077 0.0727,0.0606 0.0793,0.1538 0.0173,0.23388 -0.0563,0.0714 -0.057,0.0807 -0.009,0.16657 0.0287,0.0498 0.0434,0.11441 0.0322,0.14312 -0.0225,0.0577 -0.13302,0.0671 -0.21689,0.0173 z m -0.55233,-0.0115 c -0.076,-0.0915 -0.0261,-0.15683 0.12755,-0.16685 0.1196,-0.009 0.14629,0 0.15928,0.0498 0.009,0.0332 0.001,0.0824 -0.0115,0.1108 -0.0362,0.0642 -0.22189,0.0685 -0.2738,0 z m 0.47093,0.34678 c -0.0495,-0.0591 0.0173,-0.13476 0.1437,-0.1608 0.0778,-0.0144 0.1059,-0.0101 0.12062,0.0296 0.0449,0.11701 -0.18283,0.23012 -0.26454,0.13129 z m 0.001,1.35031 c -0.0819,-0.0332 -0.12264,-0.11427 -0.0789,-0.15755 0.047,-0.0476 0.25778,-0.0433 0.30443,0 0.0288,0.0303 0.0336,0.0664 0.0144,0.11427 -0.0289,0.075 -0.11427,0.0884 -0.24036,0.0375 z m 0.0101,0.34868 c -0.11961,-0.026 -0.1401,-0.11672 -0.0371,-0.16343 0.11499,-0.0519 0.25478,0 0.25478,0.0996 0,0.0831 -0.0564,0.0997 -0.2179,0.0642 z m 0.14125,0.12047 c 0.1508,0 0.15184,0 0.17279,-0.11701 0.0115,-0.0642 0.0339,-0.14171 0.0495,-0.17172 0.0173,-0.0346 0.0144,-0.10056 -0.009,-0.17811 -0.0309,-0.10244 -0.0289,-0.13533 0.0101,-0.19651 0.0322,-0.0491 0.0387,-0.09 0.0208,-0.12365 -0.0173,-0.031 -0.0144,-0.0831 0.001,-0.13418 0.0291,-0.0769 0.0418,-0.0821 0.1482,-0.062 0.1955,0.0368 0.21441,0.0822 0.0789,0.1903 -0.0845,0.0671 -0.0845,0.0671 0.009,0.14667 0.0851,0.0734 0.0895,0.0869 0.056,0.17551 -0.0312,0.0822 -0.0277,0.10619 0.0225,0.16621 0.0579,0.0685 0.0609,0.0685 0.10489,0.0115 0.0391,-0.0505 0.0395,-0.0707 0.001,-0.14226 -0.0345,-0.0664 -0.0371,-0.13129 -0.0115,-0.31554 0.0626,-0.46703 0.0349,-0.79382 -0.0625,-0.73351 -0.0208,0.0115 -0.0353,0.0745 -0.0353,0.1385 0,0.11947 -0.0434,0.19161 -0.11543,0.19161 -0.0225,0 -0.0407,-0.0209 -0.0407,-0.0469 0,-0.0281 -0.0289,-0.0469 -0.0737,-0.0469 -0.0687,0 -0.0739,-0.0115 -0.0759,-0.17934 -7.2e-4,-0.10374 0.0173,-0.20776 0.0415,-0.24657 0.0375,-0.0584 0.0372,-0.0726 -0.001,-0.10634 -0.0675,-0.0563 -0.0426,-0.1942 0.0416,-0.23135 0.091,-0.0397 0.0884,-0.0519 -0.0225,-0.116 -0.1741,-0.0988 -0.0998,-0.27146 0.0988,-0.23085 0.0401,0.009 0.10936,0.0224 0.15409,0.0317 0.0812,0.0173 0.0812,0.0173 0.0984,-0.28963 0.0101,-0.16845 0.0349,-0.33545 0.057,-0.37069 0.0335,-0.0534 0.0313,-0.077 -0.0115,-0.14507 -0.0564,-0.0864 -0.0977,-0.10143 -0.13086,-0.0476 -0.0378,0.0613 -0.1669,0.0915 -0.25176,0.0592 -0.0718,-0.0274 -0.0789,-0.0426 -0.0606,-0.13187 0.0115,-0.0555 0.0208,-0.12884 0.0208,-0.16326 -0.003,-0.48806 -0.0499,-0.63266 -0.13938,-0.45968 -0.0395,0.0762 -0.0414,0.11095 -0.0101,0.19156 0.0465,0.12292 0.003,0.20173 -0.11455,0.21589 -0.14994,0.0173 -0.23437,-0.12436 -0.12668,-0.2134 0.0407,-0.0339 0.0414,-0.0469 0.003,-0.0894 -0.0674,-0.0782 -0.0806,-0.18055 -0.032,-0.24969 0.0364,-0.0521 0.0372,-0.0746 0.003,-0.1274 -0.0336,-0.0538 -0.031,-0.0798 0.0144,-0.1617 0.0538,-0.0944 0.0538,-0.0995 -0.003,-0.1631 -0.0719,-0.0788 -0.1444,-0.22112 -0.17245,-0.3385 -0.0478,-0.20029 -0.17157,-0.0101 -0.20424,0.31438 -0.0225,0.22886 -0.12494,0.5043 -0.18698,0.5043 -0.0144,0 -0.0349,0.0665 -0.0436,0.1482 -0.0101,0.0814 -0.0315,0.2184 -0.0509,0.30407 -0.072,0.32284 -0.0762,0.48032 -0.0144,0.54828 0.0478,0.0527 0.0512,0.0778 0.0225,0.15585 -0.0225,0.0563 -0.025,0.12754 -0.0101,0.18157 0.03,0.10417 0.0101,0.14298 -0.0848,0.17285 -0.10273,0.0317 -0.092,0.13591 0.0144,0.14817 0.0782,0.0101 0.0858,0.0209 0.0858,0.14053 0,0.18201 0.0436,0.21815 0.20071,0.16621 0.10099,-0.0332 0.13389,-0.0332 0.17244,0 0.071,0.0591 0.0579,0.17559 -0.0271,0.24232 -0.0747,0.0591 -0.0747,0.0591 0.0144,0.0933 0.10215,0.0382 0.11701,0.11456 0.0388,0.20091 -0.0527,0.0584 -0.18345,0.075 -0.25051,0.0325 -0.0586,-0.0375 -0.10706,-0.1872 -0.0651,-0.20149 0.0208,-0.009 0.025,-0.0281 0.0115,-0.049 -0.0423,-0.0685 -0.0716,-0.0382 -0.0759,0.0782 -0.001,0.0671 -0.025,0.12639 -0.0519,0.14197 -0.0517,0.0289 -0.0623,0.1388 -0.0208,0.20567 0.0225,0.0346 0.0434,0.0332 0.12264,-0.009 0.0528,-0.0274 0.1456,-0.0498 0.2061,-0.0498 0.0906,0 0.11845,0.0173 0.15824,0.0935 0.0606,0.11701 0.11139,0.12221 0.0808,0.009 -0.0274,-0.10215 0.0208,-0.3889 0.0685,-0.4192 0.0519,-0.0317 0.21939,0.009 0.26278,0.0606 0.0303,0.0375 0.0277,0.0649 -0.0144,0.13504 -0.0485,0.0819 -0.0485,0.0915 7.2e-4,0.1458 0.0747,0.0828 0.0657,0.15286 -0.0287,0.2144 -0.0802,0.0527 -0.0806,0.0534 -0.0144,0.078 0.0864,0.0317 0.11615,0.11325 0.0615,0.16743 -0.025,0.0252 -0.13173,0.0505 -0.23984,0.0592 -0.10821,0.0101 -0.2179,0.0281 -0.24357,0.0426 -0.0415,0.0224 -0.0414,0.031 0.001,0.0671 0.062,0.0512 0.0626,0.16931 0.001,0.22017 -0.0414,0.0346 -0.0401,0.0505 0.0115,0.1362 0.076,0.12664 0.0573,0.16805 -0.10821,0.23903 -0.10099,0.0433 -0.13129,0.0714 -0.11744,0.10821 0.0144,0.0361 0.0427,0.0447 0.1059,0.0303 0.0682,-0.0144 0.0987,0 0.14298,0.0556 0.0561,0.0746 0.0561,0.0746 0.13057,-0.0144 0.0626,-0.0746 0.0977,-0.0883 0.22589,-0.0883 z m -0.25017,0.8432 c -0.0252,-0.0144 -0.10633,-0.0209 -0.18033,-0.0101 -0.1287,0.0173 -0.13952,0.0115 -0.26579,-0.12481 -0.0724,-0.0788 -0.165,-0.2276 -0.2061,-0.3309 -0.0675,-0.16967 -0.0726,-0.21544 -0.0528,-0.4825 0.0115,-0.1847 0.0101,-0.31607 -0.0101,-0.35178 -0.0173,-0.031 -0.0814,-0.20314 -0.14211,-0.38206 -0.0994,-0.29317 -0.11009,-0.35838 -0.11009,-0.66375 0,-0.24253 -0.0144,-0.37152 -0.0502,-0.45455 -0.0964,-0.22233 -0.10273,-0.30941 -0.0407,-0.56168 0.0323,-0.13216 0.059,-0.25847 0.0594,-0.28062 3.5e-4,-0.0224 0.0289,-0.0789 0.0638,-0.1261 0.0684,-0.0925 0.14474,-0.33165 0.18615,-0.58213 0.0144,-0.0858 0.0538,-0.24706 0.0883,-0.35865 0.0918,-0.2979 0.23287,-1.12054 0.22988,-1.34107 -0.001,-0.22462 -0.025,-0.2964 -0.086,-0.28602 -0.11615,0.0208 -0.20113,0.0977 -0.20195,0.18553 -0.001,0.19654 -0.0372,0.43725 -0.0834,0.56843 -0.0583,0.16535 -0.2184,0.4946 -0.2726,0.56139 -0.0208,0.0258 -0.0622,0.11196 -0.0912,0.19156 -0.10633,0.28859 -0.2169,0.41259 -0.49522,0.55585 -0.3197,0.16444 -0.57726,0.20318 -0.68718,0.10298 -0.0378,-0.0346 -0.12466,-0.0727 -0.1928,-0.0849 -0.15548,-0.0279 -0.28689,-0.0947 -0.3245,-0.16535 -0.0144,-0.03 -0.0371,-0.14561 -0.0465,-0.25699 -0.0101,-0.11138 -0.031,-0.2658 -0.047,-0.34292 -0.0225,-0.10835 -0.0208,-0.165 0.0173,-0.2495 0.0261,-0.06 0.0661,-0.19344 0.0886,-0.29642 0.0407,-0.18471 0.0401,-0.18824 -0.0408,-0.27304 -0.082,-0.086 -0.082,-0.086 0.0173,-0.18844 0.12581,-0.12985 0.1248,-0.16621 -0.003,-0.22089 -0.0578,-0.025 -0.11628,-0.0622 -0.12999,-0.0843 -0.0674,-0.10893 -0.0225,-0.49971 0.0814,-0.70301 0.0332,-0.0651 0.0603,-0.14125 0.0603,-0.16933 0,-0.0643 0.0819,-0.2351 0.17106,-0.35683 0.0375,-0.0512 0.0776,-0.12985 0.0884,-0.17452 0.0101,-0.0444 0.0739,-0.14976 0.14038,-0.23384 0.0664,-0.0843 0.13692,-0.20071 0.15669,-0.25901 0.0502,-0.14821 0.045,-0.33104 -0.0101,-0.37744 -0.075,-0.0623 -0.0547,-0.12061 0.0594,-0.16828 0.10057,-0.0418 0.26819,-0.24134 0.26819,-0.31861 0,-0.0208 0.0208,-0.0534 0.047,-0.0747 0.026,-0.0225 0.0747,-0.097 0.10879,-0.16743 0.0339,-0.0707 0.10388,-0.19861 0.15582,-0.28433 0.14255,-0.23611 0.1872,-0.34616 0.1872,-0.46261 0,-0.11571 0.0553,-0.19967 0.28758,-0.43786 0.14612,-0.14959 0.14941,-0.15132 0.22663,-0.1007 0.0726,0.0476 0.0782,0.0694 0.0782,0.29318 0,0.14786 -0.0144,0.26572 -0.0413,0.30335 -0.0225,0.0339 -0.0583,0.12192 -0.0796,0.1955 -0.0261,0.091 -0.0638,0.14543 -0.11701,0.16967 -0.0538,0.025 -0.0737,0.0537 -0.0633,0.0932 0.009,0.0326 -0.0173,0.0958 -0.0603,0.14682 -0.0414,0.0495 -0.0772,0.1297 -0.0796,0.17847 -0.003,0.0958 -0.12553,0.37994 -0.21892,0.51483 -0.0315,0.0457 -0.0574,0.12047 -0.0574,0.16656 0,0.0633 -0.0225,0.0918 -0.0893,0.11744 -0.11831,0.0447 -0.17158,0.13072 -0.12985,0.20894 0.0404,0.0756 0.0144,0.14096 -0.0778,0.20194 -0.0609,0.0398 -0.0707,0.0665 -0.0561,0.15547 0.0144,0.0864 0.003,0.11513 -0.0486,0.14838 -0.085,0.0531 -0.0838,0.0972 0.003,0.13591 0.089,0.0391 0.10922,0.1624 0.0353,0.21665 -0.0519,0.0378 -0.0521,0.0436 -0.001,0.0934 0.11441,0.11441 0.0433,0.23536 -0.13851,0.23536 -0.0641,0 -0.1274,0.0173 -0.14096,0.0388 -0.0352,0.0564 -0.0372,0.4065 -0.001,0.45136 0.0225,0.0297 0.0397,0.0279 0.0752,-0.009 0.057,-0.057 0.25642,-0.0583 0.32997,-0.001 0.03,0.0225 0.0547,0.0682 0.0547,0.10056 0,0.0444 0.0144,0.0346 0.0599,-0.0388 0.0329,-0.0538 0.0769,-0.10373 0.098,-0.1108 0.03,-0.0101 0.0297,-0.0289 -0.001,-0.0873 -0.0361,-0.0672 -0.0313,-0.0819 0.047,-0.14925 0.069,-0.0594 0.10835,-0.0708 0.19114,-0.0551 0.11744,0.0225 0.10893,0.0752 0.11701,-0.72654 10e-4,-0.302 0.009,-0.32617 0.0793,-0.38401 0.0418,-0.0339 0.11615,-0.0698 0.165,-0.0796 0.0548,-0.0101 0.1336,-0.0724 0.20464,-0.15929 0.16067,-0.19653 0.33691,-0.31803 0.46119,-0.31803 0.11311,0 0.20027,-0.0674 0.20027,-0.15444 0,-0.0915 0.0727,-0.13302 0.14298,-0.0812 0.0537,0.0395 0.0687,0.0353 0.14561,-0.0375 0.10215,-0.0972 0.1059,-0.11975 0.0225,-0.14124 -0.0694,-0.0173 -0.0831,-0.11355 -0.025,-0.17175 0.0208,-0.0208 0.0739,-0.0374 0.11845,-0.0374 0.15876,0 0.21141,0.1362 0.0727,0.18906 -0.1111,0.0424 -0.0537,0.0995 0.0871,0.086 0.0952,-0.0101 0.10619,-0.0208 0.11571,-0.11932 0.0144,-0.16604 0.0512,-0.18988 0.26708,-0.18033 0.19052,0.009 0.19052,0.009 0.19363,-0.10388 0.001,-0.062 0.0115,-0.12697 0.0225,-0.14457 0.0349,-0.0563 0.24905,-0.0664 0.309,-0.0144 0.0491,0.0426 0.0657,0.0416 0.16379,-0.0115 0.12711,-0.0685 0.13331,-0.0932 0.0415,-0.16725 -0.11629,-0.0944 -0.0173,-0.2174 0.14197,-0.17722 0.11355,0.0284 0.12985,0.14544 0.0313,0.22587 -0.0811,0.0661 -0.0811,0.0661 0.0225,0.082 0.14958,0.0225 0.2276,-0.0173 0.28931,-0.14715 0.0635,-0.13389 0.1362,-0.1721 0.18968,-0.0995 0.0623,0.0851 0.10114,0.06 0.15444,-0.0995 0.0277,-0.0832 0.085,-0.18407 0.12711,-0.22388 0.0811,-0.076 0.0984,-0.18179 0.0453,-0.28058 -0.027,-0.0502 -0.0115,-0.0698 0.0933,-0.13057 0.0947,-0.054 0.12495,-0.0907 0.12495,-0.15167 3.6e-4,-0.11744 0.12047,-0.21592 0.26287,-0.21592 0.11831,0 0.11831,0 0.10706,0.24634 -0.009,0.19072 -0.0251,0.26167 -0.0726,0.31425 -0.059,0.0651 -0.0594,0.0718 -0.009,0.16171 0.0739,0.12913 0.0277,0.21366 -0.11758,0.21366 -0.0765,0 -0.11701,0.0173 -0.14197,0.0651 -0.0423,0.0788 -0.009,0.12884 0.0364,0.0516 0.0375,-0.0674 0.11629,-0.0695 0.20735,-0.003 0.0851,0.0599 0.0897,0.15669 0.0101,0.19987 -0.10013,0.0537 -0.18471,0.0372 -0.22738,-0.0447 -0.0398,-0.0762 -0.0416,-0.0747 -0.22489,0.17313 -0.15669,0.21166 -0.19674,0.24855 -0.26422,0.24059 -0.0557,-0.009 -0.0828,0.009 -0.0902,0.0453 -0.0144,0.0794 0.13793,0.073 0.18824,-0.009 0.0519,-0.0831 0.0933,-0.0788 0.21414,0.0225 0.0908,0.0762 0.12177,0.0843 0.29614,0.0752 0.16933,-0.0101 0.19925,-0.001 0.22863,0.0531 0.0173,0.0346 0.0336,0.0921 0.0336,0.1274 0,0.0362 0.0208,0.0643 0.0465,0.0643 0.0287,0 0.0436,-0.025 0.0388,-0.0657 -0.0101,-0.0856 0.12379,-0.18719 0.27904,-0.21241 0.0863,-0.0144 0.11831,-0.0341 0.11629,-0.0734 -0.001,-0.0297 -0.003,-0.12437 -0.009,-0.20992 -0.003,-0.14371 -0.0115,-0.15583 -0.0824,-0.15583 -0.0832,0 -0.19239,-0.12913 -0.15755,-0.18574 0.0101,-0.0173 0.0596,-0.0326 0.10807,-0.0326 0.0485,0 0.10633,-0.0225 0.12884,-0.0495 0.0603,-0.0727 -0.001,-0.15582 -0.11052,-0.1437 -0.0672,0.009 -0.082,-10e-4 -0.0726,-0.0469 0.009,-0.0336 0.0361,-0.0538 0.0724,-0.0508 0.0769,0.009 0.1072,-0.0408 0.10806,-0.16933 4.6e-4,-0.0985 -0.0384,-0.1336 -0.0776,-0.07 -0.0336,0.0544 -0.19821,0.0356 -0.23137,-0.0263 -0.0335,-0.0625 0.009,-0.1297 0.0814,-0.1297 0.0622,0 0.0485,-0.0737 -0.0225,-0.11745 -0.0707,-0.044 -0.0806,-0.1349 -0.025,-0.22488 0.0323,-0.0519 0.026,-0.0736 -0.0447,-0.14786 -0.0707,-0.0739 -0.0822,-0.1134 -0.0808,-0.26684 7.2e-4,-0.0988 0.0115,-0.18679 0.0261,-0.1949 0.0335,-0.0208 0.27947,0.14428 0.27947,0.18721 0,0.0208 0.0173,0.0516 0.0371,0.072 0.059,0.059 0.14993,-0.045 0.14993,-0.17175 0,-0.0977 0.009,-0.10576 0.0858,-0.0964 0.0737,0.009 0.0884,0.0274 0.10475,0.13475 0.0101,0.0685 0.0423,0.17702 0.07,0.24059 0.0283,0.0638 0.0511,0.15132 0.0511,0.19425 0,0.0746 0.009,0.0776 0.13576,0.0599 0.23412,-0.0322 0.33236,0.0726 0.21965,0.23362 -0.0475,0.0675 -0.0465,0.0746 0.0173,0.11961 0.0528,0.0371 0.0635,0.0665 0.0478,0.12985 -0.0115,0.045 -0.0364,0.0918 -0.0557,0.10373 -0.0253,0.0144 -0.0225,0.0433 0.009,0.0995 0.0225,0.0427 0.045,0.11052 0.0491,0.14994 0.003,0.0397 0.0101,0.0794 0.0115,0.0876 0.001,0.009 0.0349,-0.0439 0.072,-0.11672 0.0372,-0.0727 0.0945,-0.14096 0.1274,-0.15132 0.0531,-0.0173 0.0488,-0.0258 -0.0371,-0.0778 -0.11182,-0.0676 -0.12365,-0.1504 -0.0339,-0.23156 0.0626,-0.057 0.0626,-0.057 -0.003,-0.12956 -0.0586,-0.0623 -0.0626,-0.0834 -0.0313,-0.15254 0.03,-0.0658 0.0547,-0.0786 0.13706,-0.0707 0.13072,0.0115 0.1903,0.14578 0.10633,0.23858 -0.0509,0.0561 -0.0499,0.0615 0.0225,0.10821 0.10186,0.0665 0.12091,0.16102 0.0509,0.25011 -0.0561,0.0713 -0.056,0.0744 0.003,0.12697 0.0521,0.0447 0.0718,0.047 0.11514,0.0144 0.0287,-0.0225 0.0574,-0.0434 0.0643,-0.0478 0.009,-0.003 -0.001,-0.026 -0.0208,-0.0478 -0.0522,-0.0638 -0.0571,-0.1982 -0.0101,-0.25626 0.0353,-0.0426 0.0371,-0.0661 0.009,-0.11326 -0.0589,-0.0938 -0.0436,-0.17493 0.0447,-0.23934 0.0737,-0.0538 0.0776,-0.0661 0.0391,-0.1274 -0.0858,-0.13735 0.10071,-0.25567 0.22538,-0.14298 0.0551,0.0499 0.0635,0.0502 0.0987,0.003 0.0208,-0.0277 0.09,-0.0594 0.15287,-0.0707 0.0984,-0.0173 0.11961,-0.0101 0.15236,0.0508 0.0336,0.0626 0.0284,0.0788 -0.044,0.13678 -0.07,0.056 -0.0822,0.0897 -0.0822,0.22963 0,0.15807 -0.003,0.16586 -0.10922,0.20967 -0.06,0.0251 -0.10922,0.0665 -0.10922,0.0921 0,0.0599 0.045,0.059 0.10619,-0.001 0.0349,-0.0349 0.0789,-0.0426 0.15807,-0.0277 0.0985,0.0173 0.1098,0.031 0.10836,0.11845 -0.001,0.12985 -0.12221,0.37008 -0.20589,0.41086 -0.0365,0.0173 -0.0881,0.0501 -0.11355,0.0716 -0.0724,0.0599 -0.14716,0.32348 -0.12696,0.44712 0.0173,0.10634 0.0144,0.11095 -0.13952,0.17702 -0.17432,0.075 -0.22988,0.12985 -0.13173,0.12985 0.0353,0 0.0643,0.0208 0.0643,0.0449 0,0.0661 -0.0583,0.0907 -0.11109,0.0469 -0.0252,-0.0208 -0.0501,-0.0329 -0.0548,-0.0261 -0.0851,0.12018 -0.11311,0.19488 -0.0964,0.26031 0.0115,0.0512 -0.001,0.10619 -0.0439,0.16551 -0.0633,0.0886 -0.0633,0.0886 0.0459,0.17576 0.10215,0.0814 0.11254,0.0838 0.16604,0.0353 0.0958,-0.0864 0.22463,-0.10763 0.32098,-0.0522 0.0969,0.0557 0.11571,0.17175 0.0346,0.21716 -0.0996,0.056 -0.0101,0.0884 0.2134,0.0794 0.12495,-0.003 0.25158,-0.0101 0.281,-0.0101 0.0294,-4.9e-4 0.0685,-0.0291 0.0872,-0.0638 0.0485,-0.0902 -0.0436,-0.11759 -0.16119,-0.0485 -0.19114,0.11311 -0.25232,-0.0508 -0.0808,-0.21641 0.056,-0.0538 0.15253,-0.15478 0.21515,-0.22438 0.11355,-0.12667 0.11355,-0.12667 0.0346,-0.20568 -0.10316,-0.10316 -0.0762,-0.17806 0.0641,-0.17806 0.0658,0 0.12639,0.0225 0.16188,0.0623 0.0736,0.0812 0.10244,0.0788 0.19156,-0.0173 0.0897,-0.0968 0.0897,-0.10013 0.0101,-0.16534 -0.14613,-0.11831 0.0547,-0.24483 0.23435,-0.1482 0.0772,0.0416 0.11672,0.0459 0.18449,0.0208 0.14474,-0.0551 0.20694,-0.0423 0.20694,0.0434 0,0.0808 -0.0274,0.10763 -0.16084,0.1579 -0.0893,0.0336 -0.23586,0.13951 -0.3662,0.26511 -0.0447,0.0427 -0.13851,0.11499 -0.20893,0.15997 -0.14612,0.0936 -0.20215,0.21417 -0.0997,0.21417 0.0345,0 0.10504,-0.0356 0.15721,-0.0796 0.11456,-0.0964 0.19655,-0.089 0.19198,0.0173 -0.003,0.11052 0.073,0.15825 0.22164,0.13606 0.0798,-0.0115 0.15374,-0.0501 0.20568,-0.10576 0.062,-0.0665 0.10071,-0.0831 0.16535,-0.0708 0.0599,0.0115 0.1059,-0.003 0.1579,-0.0528 0.0915,-0.0858 0.21589,-0.076 0.22911,0.0173 0.003,0.0364 -0.0261,0.12062 -0.0698,0.18719 -0.12451,0.18968 -0.1437,0.20588 -0.2164,0.18241 -0.29448,-0.0952 -0.71646,5.1e-4 -1.05602,0.24009 -0.0884,0.0623 -0.12048,0.0724 -0.38751,0.11846 -0.0884,0.0144 -0.18678,0.0416 -0.21839,0.0586 -0.0762,0.0408 -0.48781,0.11874 -0.83725,0.15876 -0.34666,0.0397 -0.49103,0.009 -0.62997,-0.14125 -0.0599,-0.0641 -0.1297,-0.10676 -0.17472,-0.10676 -0.0413,0 -0.11946,-0.0144 -0.17348,-0.0345 -0.0788,-0.0274 -0.12466,-0.025 -0.22764,0.0173 -0.21714,0.0869 -0.4913,0.098 -0.63561,0.0252 -0.15963,-0.0799 -0.45145,-0.14872 -0.77708,-0.18325 -0.071,-0.009 -0.15704,-0.0439 -0.20277,-0.0856 -0.12177,-0.1111 -0.35523,-0.18595 -0.50947,-0.16309 -0.072,0.0101 -0.1624,0.0173 -0.20112,0.0173 -0.42588,-0.0144 -1.03443,0.0279 -1.21624,0.0834 -0.10734,0.0329 -0.21242,0.0436 -0.30615,0.0309 -0.13187,-0.0173 -0.14941,-0.0115 -0.23386,0.0806 -0.0501,0.0551 -0.1072,0.14959 -0.12639,0.21017 -0.0208,0.0606 -0.0736,0.15236 -0.12047,0.20361 -0.0769,0.084 -0.0848,0.11426 -0.0788,0.29568 0.009,0.19925 0.009,0.20237 0.10388,0.22213 0.10979,0.0225 0.25468,0.10879 0.25468,0.15132 0,0.0144 -0.0225,0.0516 -0.0516,0.0799 -0.0482,0.0482 -0.0453,0.057 0.0388,0.12581 0.10806,0.0883 0.11845,0.0902 0.16846,0.0297 0.0843,-0.10143 0.31185,5.1e-4 0.31185,0.13995 0,0.10937 0.0603,0.098 0.14734,-0.0283 0.0952,-0.13793 0.16067,-0.17209 0.31257,-0.1624 0.10143,0.009 0.10143,0.009 0.0996,-0.15859 -0.001,-0.11701 -0.0101,-0.14664 -0.0274,-0.10215 -0.0387,0.0945 -0.14942,0.18159 -0.20403,0.16032 -0.0926,-0.0356 -0.0933,-0.1196 -10e-4,-0.19861 0.0874,-0.0752 0.0874,-0.0752 0.0208,-0.16534 -0.0365,-0.0496 -0.0665,-0.0985 -0.0665,-0.10893 0,-0.0101 0.0632,-0.0101 0.14038,0.001 0.13389,0.0208 0.14038,0.0173 0.14038,-0.0557 0,-0.10143 -0.084,-0.17279 -0.21841,-0.18533 -0.0915,-0.009 -0.1108,-0.0225 -0.11859,-0.0925 -0.009,-0.0682 0.009,-0.0882 0.0906,-0.11701 0.19904,-0.0694 0.3144,-0.045 0.43183,0.0906 0.0881,0.10201 0.1274,0.12437 0.21989,0.12437 0.2214,0 0.24209,0.12754 0.0762,0.4712 -0.0612,0.12696 -0.131,0.26559 -0.15564,0.30847 -0.025,0.0427 -0.0444,0.10056 -0.0447,0.12754 -3e-4,0.0274 -0.0284,0.075 -0.0626,0.10619 -0.071,0.0643 -0.0806,0.10893 -0.0225,0.10994 0.0769,0.001 0.18554,0.11499 0.21017,0.21989 0.0225,0.0918 0.0258,0.0955 0.0284,0.026 0.003,-0.11946 0.0996,-0.19031 0.23859,-0.17847 0.14717,0.0115 0.19925,0.084 0.14111,0.19302 -0.0508,0.0945 -0.0225,0.18449 0.0522,0.16915 0.0424,-0.0101 0.0531,-0.0384 0.047,-0.13259 -0.0115,-0.21391 0.14682,-0.30273 0.31159,-0.17314 0.0786,0.062 0.0786,0.062 0.20401,-0.009 0.11225,-0.0615 0.13389,-0.0641 0.20652,-0.0252 0.0902,0.0485 0.10503,0.12985 0.0341,0.18865 -0.0641,0.0531 -0.0589,0.0894 0.0225,0.15478 0.0668,0.054 0.0719,0.0534 0.17158,-0.0261 0.10244,-0.0819 0.10244,-0.0819 0.034,-0.1336 -0.0583,-0.0439 -0.0623,-0.059 -0.0271,-0.10143 0.0534,-0.0641 0.17036,-0.0638 0.22363,5.1e-4 0.0361,0.0433 0.0312,0.059 -0.0332,0.11109 -0.075,0.0609 -0.075,0.0609 0.003,0.12884 0.10374,0.0873 0.1339,0.1874 0.072,0.23884 -0.0648,0.0538 -0.031,0.0945 0.0788,0.0945 0.0964,0 0.12465,-0.0516 0.0449,-0.0822 -0.0609,-0.0225 -0.0596,-0.10388 0.001,-0.19364 0.0312,-0.0447 0.0436,-0.1046 0.0329,-0.15824 -0.0101,-0.0522 7.2e-4,-0.11326 0.0294,-0.15357 0.0962,-0.13735 0.33595,-0.044 0.32087,0.12466 -0.0144,0.1572 -0.003,0.16949 0.12956,0.15686 0.21142,-0.0208 0.32391,0.13071 0.17175,0.23036 -0.07,0.0459 -0.085,0.0457 -0.1899,-0.003 -0.0964,-0.0459 -0.11831,-0.0475 -0.14168,-0.0101 -0.0499,0.0789 0.0564,0.12178 0.25216,0.10114 0.11542,-0.0115 0.18574,-0.009 0.19945,0.0144 0.0115,0.0225 0.0726,0.0274 0.15963,0.0144 0.15876,-0.0225 0.29573,0.0449 0.29573,0.14428 0,0.0329 0.0144,0.0685 0.0312,0.0789 0.0173,0.0101 0.0312,-0.009 0.0312,-0.0413 0,-0.0752 0.0574,-0.12451 0.1899,-0.1624 0.0802,-0.0225 0.11442,-0.0173 0.15756,0.0208 0.0439,0.0397 0.0739,0.0434 0.14785,0.0173 0.0958,-0.0335 0.20818,-0.0208 0.27644,0.0336 0.0225,0.0173 0.0388,0.101 0.0388,0.19821 0,0.20423 0.0508,0.22088 0.0798,0.0263 0.025,-0.15807 0.10835,-0.23461 0.1874,-0.16915 0.025,0.0208 0.0449,0.0594 0.0449,0.0863 0,0.027 0.0335,0.0848 0.0745,0.1287 0.0499,0.0534 0.0856,0.14578 0.10879,0.28029 0.0382,0.22337 0.0977,0.32562 0.0977,0.16742 0,-0.0571 0.0208,-0.10374 0.0469,-0.11442 0.0668,-0.0258 0.0574,-0.072 -0.0173,-0.0921 -0.0868,-0.0225 -0.0668,-0.11874 0.0341,-0.1669 0.1261,-0.0596 0.19198,-0.0609 0.22838,-0.003 0.0271,0.0423 0.0208,0.0685 -0.0349,0.12668 -0.0772,0.0822 -0.0869,0.11629 -0.0326,0.11629 0.0208,0 0.059,0.0208 0.0863,0.045 0.0382,0.0346 0.0788,0.0387 0.17411,0.0173 0.10504,-0.025 0.13361,-0.0208 0.18595,0.0335 0.0923,0.0915 0.0309,0.16915 -0.13678,0.17227 -0.0716,0.001 -0.14197,0.0144 -0.15616,0.0312 -0.0453,0.0495 -0.0707,0.34906 -0.0313,0.37336 0.0413,0.0252 0.18179,-0.13331 0.18323,-0.20736 5.1e-4,-0.0274 0.0294,-0.0752 0.0638,-0.10633 0.0609,-0.0548 0.0648,-0.0548 0.13259,0.009 0.0582,0.0537 0.0973,0.0615 0.23336,0.0478 0.17971,-0.0173 0.25747,0.0208 0.25747,0.12451 0,0.0345 -0.0208,0.0786 -0.045,0.0975 -0.0388,0.03 -0.0365,0.0453 0.0173,0.10922 0.076,0.0921 0.0856,0.0832 0.0977,-0.0886 0.009,-0.11845 0.0225,-0.14457 0.11499,-0.1955 0.18824,-0.10503 0.31241,-0.0225 0.22114,0.14838 -0.0315,0.059 -0.0287,0.0833 0.0208,0.14613 0.057,0.0752 0.057,0.0752 0.12321,0 0.0512,-0.0599 0.0845,-0.0726 0.14734,-0.057 0.12668,0.032 0.18553,0.10763 0.16292,0.21043 -0.032,0.14508 0.0469,0.22457 0.22538,0.22782 0.1349,0 0.15062,0.0101 0.16032,0.0808 0.003,0.0426 0.0225,0.0935 0.0388,0.11228 0.0433,0.0527 0.0713,0.31337 0.0361,0.33516 -0.0208,0.0115 -0.0208,0.0649 5e-4,0.15236 0.0173,0.0734 0.0349,0.24556 0.0388,0.38277 0.003,0.13706 0.0101,0.29858 0.0144,0.3586 0.003,0.10922 0.003,0.10922 0.0391,0.0144 0.0173,-0.0512 0.0475,-0.11196 0.0652,-0.13432 0.0173,-0.0224 0.0335,-0.11874 0.0349,-0.21411 10e-4,-0.13736 -0.0101,-0.18201 -0.0573,-0.21541 -0.0551,-0.0382 -0.0564,-0.0519 -0.0173,-0.16816 0.0352,-0.10619 0.0349,-0.13879 -0.001,-0.20711 -0.0408,-0.0762 -0.0372,-0.0863 0.0626,-0.1758 0.10619,-0.0947 0.10619,-0.0947 0.17576,-0.009 0.11095,0.13923 0.11572,0.51291 0.009,0.57985 -0.0225,0.0115 -0.0144,0.0469 0.0173,0.098 0.0388,0.0599 0.10937,0.45297 0.1111,0.62177 2.9e-4,0.0252 0.14751,0.0115 0.17472,-0.0144 0.0101,-0.0101 -0.0101,-0.0368 -0.0469,-0.0592 -0.0846,-0.0527 -0.0824,-0.1046 0.0115,-0.32029 0.0657,-0.14818 0.09,-0.17574 0.1482,-0.16744 0.0594,0.009 0.0695,0.0289 0.0695,0.13952 0,0.0714 0.0101,0.14038 0.0225,0.15344 0.0418,0.0426 0.025,0.2017 -0.0225,0.22038 -0.0643,0.0252 -0.0586,0.0599 0.0225,0.13491 0.0684,0.0635 0.0684,0.0635 0.14053,0 0.0724,-0.0685 0.0724,-0.0685 10e-4,-0.14169 -0.0623,-0.0664 -0.0648,-0.0806 -0.025,-0.14254 0.025,-0.0375 0.0457,-0.14371 0.047,-0.23561 0.001,-0.12365 0.0173,-0.17451 0.0564,-0.19694 0.0502,-0.0281 0.0496,-0.0353 -0.0101,-0.11052 -0.075,-0.0955 -0.0793,-0.14442 -0.0173,-0.19615 0.0407,-0.0332 0.0387,-0.0483 -0.0144,-0.11715 -0.0737,-0.0936 -0.0789,-0.17328 -0.0144,-0.22637 0.0258,-0.0224 0.0469,-0.0563 0.0469,-0.0786 0,-0.0224 -0.0208,-0.0476 -0.0469,-0.0577 -0.0675,-0.026 -0.0583,-0.16747 0.0115,-0.20592 0.10143,-0.0541 0.21542,-0.0375 0.26354,0.0375 0.056,0.0876 0.025,0.51186 -0.0408,0.55219 -0.034,0.0209 -0.0323,0.039 0.0101,0.0985 0.0632,0.0902 0.0648,0.16534 0.003,0.22514 -0.0404,0.0404 -0.0404,0.0505 0,0.084 0.0644,0.0534 0.0571,0.1463 -0.0173,0.20921 -0.0737,0.0635 -0.0799,0.102 -0.0173,0.102 0.076,0 0.11946,0.11615 0.0828,0.22133 -0.0586,0.16815 0.0208,0.22839 0.19612,0.1486 0.0781,-0.0353 0.0781,-0.0353 -0.0144,-0.12177 -0.10994,-0.10273 -0.1134,-0.1323 -0.025,-0.21541 0.0635,-0.0592 0.0646,-0.0664 0.0144,-0.12061 -0.0664,-0.0734 -0.0658,-0.1261 0.001,-0.2007 0.0511,-0.0563 0.0502,-0.062 -0.0208,-0.11441 -0.14053,-0.10619 -0.0101,-0.25761 0.16413,-0.19117 0.0935,0.0353 0.11456,0.16729 0.034,0.21238 -0.0415,0.0224 -0.0397,0.0346 0.0144,0.0843 0.0769,0.0693 0.0814,0.16332 0.0115,0.23965 -0.0476,0.0527 -0.046,0.0606 0.0208,0.11354 0.0626,0.0512 0.0664,0.0657 0.0309,0.13317 -0.0225,0.0418 -0.0553,0.0863 -0.0745,0.0987 -0.0225,0.0144 -7.2e-4,0.0498 0.0594,0.0987 0.0769,0.062 0.102,0.0685 0.14038,0.0368 0.0573,-0.0476 0.26522,-0.039 0.32923,0.0144 0.0297,0.0252 0.0444,0.0828 0.0398,0.15857 -0.003,0.089 0.0115,0.13937 0.0665,0.1978 0.0635,0.0678 0.0687,0.089 0.0374,0.15755 -0.0297,0.0649 -0.0277,0.0824 0.0115,0.0977 0.0675,0.026 0.0925,-0.0101 0.0459,-0.0664 -0.0329,-0.0397 -0.0297,-0.0476 0.0208,-0.0476 0.0326,0 0.0833,-0.0281 0.11254,-0.062 0.0294,-0.0346 0.0765,-0.062 0.10475,-0.062 0.0283,0 0.10575,-0.0173 0.17226,-0.0361 0.1212,-0.0361 0.1212,-0.0361 0.0208,-0.12119 -0.0996,-0.0831 -0.1007,-0.0873 -0.06,-0.1999 0.0371,-0.10215 0.0356,-0.11946 -0.0115,-0.15409 -0.0802,-0.0584 -0.0335,-0.16303 0.0838,-0.18655 0.16587,-0.0332 0.21367,-0.0224 0.25031,0.0584 0.0289,0.0635 0.026,0.0884 -0.0173,0.13533 -0.0486,0.0541 -0.0482,0.0613 0.0101,0.11427 0.0788,0.0714 0.0788,0.11182 -3e-4,0.21216 -0.0407,0.0519 -0.0511,0.0873 -0.03,0.10056 0.0457,0.0281 0.12798,-0.0462 0.11845,-0.10676 -0.003,-0.0274 0.0208,-0.0897 0.0511,-0.13851 0.0478,-0.0721 0.0521,-0.0998 0.0225,-0.14781 -0.085,-0.13606 -0.009,-0.30068 0.12755,-0.26706 0.11701,0.0296 0.17313,0.0977 0.15564,0.18951 -0.0144,0.0814 0.001,0.0958 0.21018,0.15755 0.078,0.0224 0.078,0.0224 0.009,-0.044 -0.082,-0.0782 -0.0912,-0.20798 -0.0208,-0.28589 0.0453,-0.0498 0.0439,-0.057 -0.0173,-0.0902 -0.0476,-0.0252 -0.0641,-0.0599 -0.0571,-0.11874 0.0115,-0.10374 0.13951,-0.15791 0.26694,-0.11311 0.0765,0.0267 0.086,0.0462 0.0893,0.17948 0.003,0.17284 0.0475,0.23791 0.1186,0.17869 0.0544,-0.0455 0.21365,-0.0209 0.32526,0.0505 0.0672,0.0426 0.077,0.0411 0.1186,-0.0173 0.0589,-0.084 0.19591,-0.0846 0.30203,0 0.0812,0.0642 0.0812,0.0642 0.17784,-0.009 0.0962,-0.0714 0.0962,-0.0714 0.0322,-0.12365 -0.10706,-0.0864 -0.0831,-0.1745 0.0594,-0.21714 0.098,-0.0296 0.1336,-0.0289 0.17157,0 0.0665,0.0548 0.0596,0.16744 -0.0144,0.2346 -0.0449,0.0404 -0.0531,0.0671 -0.03,0.0952 0.0173,0.0224 0.0291,0.086 0.0251,0.14341 -0.003,0.0584 0.0173,0.14168 0.0482,0.18843 0.0449,0.0685 0.0682,0.0793 0.12481,0.0577 0.13576,-0.0519 0.27557,-0.0505 0.3089,0 0.0589,0.0934 0.001,0.15236 -0.14226,0.15236 -0.0745,0 -0.15201,-0.0173 -0.17314,-0.0375 -0.0297,-0.0303 -0.0561,-0.0209 -0.12235,0.0469 -0.0845,0.0846 -0.0845,0.0846 -0.003,0.16433 0.0789,0.0789 0.0802,0.0793 0.17828,0.0224 0.09,-0.0512 0.10618,-0.0519 0.18469,-0.009 0.0609,0.0339 0.0908,0.0796 0.10186,0.15582 0.0115,0.0902 0.0284,0.10807 0.0935,0.10807 0.0594,0 0.0762,-0.0144 0.0713,-0.062 -0.0101,-0.0987 0.0538,-0.26504 0.10244,-0.26504 0.0519,0 0.16915,0.10979 0.16915,0.15805 0,0.0173 -0.0115,0.0584 -0.0302,0.0897 -0.0225,0.0426 -0.0144,0.07 0.0289,0.10995 0.0509,0.0462 0.0737,0.0483 0.165,0.0144 0.1059,-0.0382 0.1059,-0.0382 0.0335,-0.1163 -0.0808,-0.0871 -0.0834,-0.0972 -0.0439,-0.15978 0.0521,-0.0824 0.31436,-0.0296 0.31436,0.0635 0,0.0144 -0.0336,0.057 -0.075,0.0926 -0.0746,0.0649 -0.0747,0.0657 -0.0115,0.12668 0.0424,0.0426 0.0589,0.0947 0.0522,0.16794 -0.0101,0.11759 0.0378,0.188 0.10994,0.16029 0.032,-0.0115 0.0465,-0.0599 0.045,-0.1473 -0.001,-0.17747 0.0615,-0.24031 0.19073,-0.18677 0.073,0.0303 0.0958,0.0591 0.0958,0.12321 0,0.0462 -0.0173,0.10143 -0.0388,0.12322 -0.0313,0.0317 -0.0144,0.0584 0.0781,0.13389 0.14312,0.11574 0.14733,0.16934 0.0173,0.22265 -0.0802,0.0332 -0.10057,0.0591 -0.10143,0.13259 -7.2e-4,0.0747 -0.0144,0.0935 -0.0808,0.10099 -0.0926,0.0101 -0.17494,-0.0671 -0.19052,-0.18071 -0.009,-0.062 -0.031,-0.0798 -0.11196,-0.0876 -0.1046,-0.0101 -0.13923,0.0354 -0.0522,0.0685 0.0782,0.0303 0.0414,0.15373 -0.056,0.188 -0.1111,0.039 -0.21939,-0.0483 -0.1928,-0.15496 0.0115,-0.0512 3e-4,-0.0806 -0.044,-0.10416 -0.0694,-0.0368 -0.11542,0 -0.13606,0.1059 -0.0173,0.09 -0.21317,0.0776 -0.44088,-0.0281 -0.11932,-0.0556 -0.2204,-0.0811 -0.29615,-0.0747 -0.10013,0.009 -0.11701,0.0224 -0.13086,0.10272 -0.0101,0.0563 -0.0378,0.0975 -0.0718,0.10388 -0.0769,0.0144 -0.15374,-0.0563 -0.13591,-0.12465 0.0173,-0.07 -0.0579,-0.0762 -0.12437,-0.0101 -0.0672,0.0671 -0.36432,0.062 -0.4708,-0.009 -0.0802,-0.0527 -0.25427,-0.0789 -0.79693,-0.12062 -0.2286,-0.0173 -0.25021,-0.0115 -0.36486,0.0657 -0.0672,0.0462 -0.14009,0.0782 -0.1624,0.0707 -0.0225,-0.009 -0.1284,0.0252 -0.23536,0.0736 -0.19032,0.0851 -0.20486,0.0869 -0.62373,0.0714 -0.23585,-0.009 -0.47802,-0.0289 -0.53807,-0.0454 -0.06,-0.0173 -0.1463,-0.0296 -0.19176,-0.0296 -0.0453,0 -0.1579,-0.0353 -0.24953,-0.0778 -0.0918,-0.0426 -0.19592,-0.0778 -0.23135,-0.0781 -0.0353,-2.9e-4 -0.14342,-0.0411 -0.23985,-0.09 -0.0964,-0.0498 -0.21489,-0.0996 -0.26298,-0.11185 -0.0482,-0.0115 -0.10879,-0.0404 -0.13432,-0.0628 -0.0573,-0.0498 -0.36927,-0.14168 -0.48189,-0.14168 -0.13231,0 -0.45375,-0.17104 -0.45375,-0.24138 0,-0.0476 -0.0821,-0.0519 -0.11095,0 -0.0115,0.0173 -0.003,0.0498 0.0144,0.0685 0.0208,0.0209 0.0346,0.0541 0.0346,0.077 0,0.0747 -0.6321,0.72482 -0.70494,0.72482 -0.0872,0 -0.0466,-0.15373 0.089,-0.33927 0.0739,-0.10111 0.0698,-0.12015 -0.0427,-0.18861 -0.0633,-0.0382 -0.13173,-0.0541 -0.19488,-0.044 -0.0694,0.0101 -0.16621,-0.0173 -0.33706,-0.0962 -0.13187,-0.0613 -0.28081,-0.11139 -0.33106,-0.11139 -0.0502,0 -0.1248,-0.026 -0.16587,-0.0577 -0.0408,-0.0317 -0.17123,-0.10373 -0.28956,-0.15979 -0.19468,-0.0923 -0.23337,-0.10013 -0.40608,-0.0824 -0.14941,0.0144 -0.20672,0.009 -0.26348,-0.031 -0.0399,-0.0279 -0.17109,-0.076 -0.29172,-0.107 -0.13317,-0.0346 -0.26464,-0.0932 -0.33513,-0.14962 -0.0638,-0.0512 -0.16586,-0.11398 -0.22661,-0.13937 -0.0609,-0.0252 -0.16482,-0.0944 -0.23112,-0.15287 -0.12292,-0.10878 -0.37829,-0.2426 -0.46303,-0.2426 -0.026,0 -0.0997,-0.0469 -0.16413,-0.10388 -0.16188,-0.14356 -0.35898,-0.26988 -0.61607,-0.39475 -0.12019,-0.0584 -0.31516,-0.1766 -0.43359,-0.26244 -0.27882,-0.20235 -0.40373,-0.26815 -0.51057,-0.26815 -0.13606,0 -0.21143,0.0756 -0.30255,0.30335 -0.0465,0.11615 -0.0994,0.22912 -0.11716,0.25083 -0.0395,0.0476 -0.0101,0.3757 0.0365,0.42331 0.0173,0.0173 0.0329,0.0935 0.0329,0.16744 0,0.0739 0.0115,0.15878 0.0279,0.18864 0.12465,0.24131 0.13504,0.3053 0.0975,0.60417 -0.0485,0.38487 -0.14197,0.64525 -0.25465,0.71003 -0.0606,0.0346 -0.0918,0.0833 -0.10561,0.1634 -0.0101,0.0649 -0.0553,0.14788 -0.10273,0.19239 -0.0459,0.0433 -0.1186,0.13104 -0.16171,0.19553 -0.22189,0.33328 -0.60989,0.55785 -0.779,0.45094 z"
         inkscape:connector-curvature="0" />
    </g>
  </g>
</svg>
